<svg width="86" height="86" viewBox="0 0 86 86" fill="none" xmlns="http://www.w3.org/2000/svg">
<path d="M0.5 40.6855C0.5 31.2433 0.501062 24.212 1.22777 18.8067C1.95255 13.4159 3.39087 9.71751 6.21142 6.89696C9.03197 4.07642 12.7304 2.6381 18.1212 1.91332C23.5264 1.18661 30.5578 1.18555 40 1.18555H46C55.4422 1.18555 62.4736 1.18661 67.8788 1.91332C73.2696 2.6381 76.968 4.07642 79.7886 6.89696C82.6091 9.71751 84.0474 13.4159 84.7722 18.8067C85.4989 24.212 85.5 31.2433 85.5 40.6855V45.6856C85.5 55.1278 85.4989 62.1591 84.7722 67.5644C84.0474 72.9552 82.6091 76.6536 79.7886 79.4741C76.968 82.2947 73.2696 83.733 67.8788 84.4578C62.4736 85.1845 55.4422 85.1855 46 85.1855H40C30.5578 85.1855 23.5264 85.1845 18.1212 84.4578C12.7304 83.733 9.03197 82.2947 6.21142 79.4741C3.39087 76.6536 1.95255 72.9552 1.22777 67.5644C0.501062 62.1591 0.5 55.1278 0.5 45.6855V40.6855Z" stroke="#009379" stroke-opacity="0.2"/>
<path d="M22.6765 64.0228C23.4922 64.8876 26.8524 63.3794 29.5046 62.1701C31.4919 61.2665 39.4449 58.0744 43.398 56.4185C44.4654 55.972 46.0179 55.3884 47.1355 53.9505C48.1274 52.6708 50.758 47.2357 45.4608 41.7302C40.0846 36.1404 34.5466 37.6837 32.4766 39.1181C31.2583 39.9619 30.2665 41.8638 29.8208 42.8306C27.9377 46.9158 25.2532 54.4005 24.1607 57.3431C23.3593 59.5123 21.8679 63.165 22.6765 64.0228Z" fill="#FFC107"/>
<path d="M29.2905 44.0605C29.3408 44.6723 29.4666 45.6672 29.8978 47.5832C30.1925 48.898 30.6741 50.2762 31.0658 51.1867C32.2409 53.9254 33.8905 55.0293 35.5616 55.9152C38.4006 57.4199 40.3305 57.7012 40.3305 57.7012L38.0161 58.6258C38.0161 58.6258 36.6145 58.341 34.7027 57.4199C32.8806 56.541 30.9831 55.0539 29.5959 52.143C28.9958 50.8809 28.6472 49.6574 28.4459 48.6871C28.198 47.4848 28.1584 46.8027 28.1584 46.8027L29.2905 44.0605ZM26.4478 51.1902C26.4478 51.1902 26.7353 53.4719 28.6616 56.3512C30.9184 59.7191 34.0702 60.2711 34.0702 60.2711L31.975 61.1148C31.975 61.1148 29.6355 60.4152 27.4109 57.4445C26.0238 55.5918 25.6356 53.377 25.6356 53.377L26.4478 51.1902ZM24.4533 56.5973C24.4533 56.5973 24.978 58.566 26.128 60.0355C27.4972 61.7898 29.2402 62.2996 29.2402 62.2996L27.6337 62.9957C27.6337 62.9957 26.4155 62.7461 25.0822 61.0938C24.0687 59.8387 23.7812 58.3973 23.7812 58.3973L24.4533 56.5973Z" fill="#FF8F00"/>
<path opacity="0.44" d="M23.5789 61.5969C23.507 61.4387 23.507 61.2594 23.5824 61.1047L32.7357 42.5352L34.2415 48.0723L24.6103 61.6812C24.3515 62.0609 23.7693 62.0117 23.5789 61.5969Z" fill="#FFFDE7"/>
<path d="M34.9686 49.9322C39.2452 54.8259 44.1147 54.2142 45.7355 52.9767C47.3599 51.7357 48.6428 47.4712 44.3843 42.6584C39.9208 37.617 34.868 39.0548 33.7 40.1447C32.5321 41.2345 31.0443 45.4427 34.9686 49.9322Z" fill="url(#paint0_linear_38_1736)"/>
<path d="M49.6557 51.9469C48.096 50.6672 47.2659 50.8957 46.1518 51.3492C44.7143 51.9328 42.4538 52.3652 39.3848 51.3492L40.3084 49.173C42.1304 49.7742 43.4493 49.4824 44.5885 48.825C46.0548 47.9813 48.0601 46.8246 51.1795 49.3875C52.4804 50.4563 53.8137 51.1664 54.7912 50.843C55.5027 50.6109 55.8801 49.5738 56.0705 48.7477C56.0885 48.6738 56.1173 48.4629 56.1388 48.2766C56.3113 46.9863 56.5988 44.202 58.7191 42.7781C60.9868 41.2559 63.3695 41.2559 63.3695 41.2559L63.8007 45.4465C62.7046 45.2883 61.9427 45.5062 61.2995 45.8543C58.8773 47.1727 60.9868 52.2352 57.217 53.9367C53.5909 55.5855 50.626 52.7414 49.6557 51.9469Z" fill="#03A9F4"/>
<path d="M36.3163 46.6027L34.7566 45.2352C37.6208 42.1063 36.8661 39.807 36.3163 38.1336C36.2048 37.7961 36.1006 37.4762 36.0323 37.1703C35.788 36.0875 35.7377 35.1453 35.8131 34.3227C34.7134 32.9832 34.2283 31.5805 34.1959 31.4855C33.5275 29.5062 34.0306 27.5762 35.1842 25.7656C37.5166 22.0918 41.7392 22.0918 41.7392 22.0918L43.148 25.7797C42.077 25.7375 38.5659 25.7902 37.4878 27.4531C36.1258 29.5484 37.0206 30.8422 37.0853 30.9898C37.3477 30.6559 37.6136 30.3887 37.8508 30.1812C39.5722 28.6871 41.0672 28.4727 42.0195 28.557C43.0905 28.652 44.0608 29.1793 44.7544 30.0441C45.5127 30.9934 45.8253 32.2273 45.5845 33.3488C45.3509 34.4422 44.607 35.3668 43.4894 35.9539C41.538 36.9805 39.9136 36.8398 38.8247 36.4848C38.8319 36.5094 38.8355 36.5375 38.8427 36.5621C38.8822 36.7379 38.9613 36.984 39.0547 37.2687C39.6908 39.1953 40.8731 42.2539 36.3163 46.6027ZM38.9577 33.4086C39.1661 33.5562 39.3853 33.6793 39.6117 33.7672C40.3664 34.0625 41.1894 33.9641 42.1238 33.4719C42.6736 33.1836 42.7383 32.8742 42.7598 32.7723C42.8245 32.4664 42.7167 32.0762 42.4831 31.7844C42.2783 31.5277 42.0411 31.3941 41.7572 31.366C41.2181 31.3203 40.4886 31.6543 39.7591 32.2906C39.4105 32.5965 39.1445 32.9727 38.9577 33.4086Z" fill="#F44336"/>
<path d="M42.5579 47.1762L40.3262 47.1164C40.3262 47.1164 41.3863 41.2594 44.8184 40.275C45.4616 40.0922 46.166 39.9059 46.874 39.8039C47.2945 39.7406 47.9593 39.6457 48.2863 39.5262C48.3618 38.9742 48.1246 38.2711 47.8587 37.473C47.6502 36.8543 47.4346 36.218 47.3196 35.5219C47.0968 34.1648 47.467 32.966 48.3618 32.1398C49.4543 31.1379 51.2188 30.818 53.2098 31.2609C54.3454 31.5141 55.1827 32.059 55.9195 32.5371C56.9724 33.2227 57.587 33.5707 58.8735 32.7234C60.4296 31.6969 58.3955 27.6785 57.3138 25.3582L61.3496 23.7129C61.8923 24.873 64.5121 30.8426 62.7835 34.2492C62.2013 35.3953 61.1987 36.1547 59.8834 36.4395C57.0227 37.0652 55.348 35.9754 54.1262 35.1809C53.5476 34.8047 53.0409 34.5094 52.491 34.3547C48.6709 33.2895 54.004 38.7879 51.5063 41.2594C50.0077 42.7395 46.3457 43.1297 46.1085 43.1859C43.751 43.7414 42.5579 47.1762 42.5579 47.1762Z" fill="#F48FB1"/>
<path d="M35.808 34.3223C35.7397 35.0957 35.7074 35.5562 35.9122 36.5617C36.9005 37.2719 39.0532 37.2719 39.0532 37.2719C38.9597 36.9871 38.8771 36.741 38.8411 36.5652C38.8339 36.5406 38.8304 36.5125 38.8232 36.4879C36.6346 35.4191 35.808 34.3223 35.808 34.3223Z" fill="#C92B27"/>
<path d="M31.3312 37.7857L27.6152 36.0033L29.466 33.3877L32.3805 35.2756L31.3312 37.7857Z" fill="#FFC107"/>
<path d="M25.8535 32.85C23.956 32.6004 22.0226 31.0254 21.8105 30.8461L23.6757 28.7051C24.2399 29.1727 25.4366 29.9566 26.238 30.0621L25.8535 32.85Z" fill="#FB8C00"/>
<path d="M29.2039 28.1637L26.4727 27.2883C26.7853 26.3531 26.868 25.3441 26.7062 24.3703L29.5453 23.9238C29.7789 25.3371 29.6603 26.8031 29.2039 28.1637Z" fill="#03A9F4"/>
<path d="M46.2598 26.0729L49.0683 25.4717L49.8794 29.0984L47.0709 29.6996L46.2598 26.0729Z" fill="#FB8C00"/>
<path d="M53.2285 26.9326L51.252 24.89C52.287 23.9303 52.5241 22.6752 52.5241 22.6611L55.3632 23.1146C55.3273 23.3361 54.9643 25.326 53.2285 26.9326Z" fill="#FFC107"/>
<path d="M54.3262 37.7649L56.8371 36.9971L57.6946 39.6816L55.1836 40.4494L54.3262 37.7649Z" fill="#FB8C00"/>
<path d="M55.057 60.4225L52.2 60.092C52.3222 59.0971 51.5639 57.8771 51.3555 57.6064L53.6555 55.9189C53.828 56.1404 55.3266 58.1689 55.057 60.4225Z" fill="#F44336"/>
<path d="M63.2589 56.8577C62.1844 56.6995 61.0847 56.6363 59.9994 56.6749L59.9023 53.8624C61.1638 53.8202 62.4395 53.8906 63.6866 54.0769L63.2589 56.8577Z" fill="#FB8C00"/>
<path d="M59.3926 60.729L61.4123 58.7275L64.192 61.4128L62.1723 63.4139L59.3926 60.729Z" fill="#F48FB1"/>
<path d="M53.4591 42.9512L55.5363 45.2746L53.1612 47.3067L51.084 44.9832L53.4591 42.9512Z" fill="#F44336"/>
<defs>
<linearGradient id="paint0_linear_38_1736" x1="46.7324" y1="42.426" x2="36.1607" y2="48.9099" gradientUnits="userSpaceOnUse">
<stop offset="0.024" stop-color="#8F4700"/>
<stop offset="1" stop-color="#703E2D"/>
</linearGradient>
</defs>
</svg>
