<svg width="57" height="58" viewBox="0 0 57 58" fill="none" xmlns="http://www.w3.org/2000/svg">
<rect x="0.971299" y="1.36974" width="55.5534" height="55.5534" rx="12.1279" stroke="#ECEBFF" stroke-width="0.782443"/>
<path d="M28.0801 16.1289C25.6078 16.1289 23.1911 16.862 21.1355 18.2355C19.0798 19.6091 17.4777 21.5613 16.5316 23.8454C15.5855 26.1294 15.338 28.6428 15.8203 31.0675C16.3026 33.4923 17.4931 35.7196 19.2412 37.4677C20.9894 39.2159 23.2167 40.4064 25.6415 40.8887C28.0662 41.371 30.5795 41.1235 32.8636 40.1774C35.1477 39.2313 37.0999 37.6291 38.4734 35.5735C39.847 33.5179 40.5801 31.1012 40.5801 28.6289C40.5766 25.3148 39.2585 22.1374 36.915 19.7939C34.5716 17.4505 31.3942 16.1324 28.0801 16.1289ZM24.9106 33.4366H31.2496C30.6041 35.6409 29.5224 37.6277 28.0801 39.1926C26.6378 37.6277 25.556 35.6409 24.9106 33.4366ZM24.4743 31.5135C24.1554 29.6037 24.1554 27.6541 24.4743 25.7443H31.6859C32.0048 27.6541 32.0048 29.6037 31.6859 31.5135H24.4743ZM17.5032 28.6289C17.5023 27.6535 17.637 26.6826 17.9034 25.7443H22.526C22.2391 27.6567 22.2391 29.6011 22.526 31.5135H17.9034C17.637 30.5752 17.5023 29.6043 17.5032 28.6289ZM31.2496 23.8212H24.9106C25.556 21.6169 26.6378 19.6301 28.0801 18.0652C29.5224 19.6301 30.6041 21.6169 31.2496 23.8212ZM33.6342 25.7443H38.2568C38.7904 27.6303 38.7904 29.6275 38.2568 31.5135H33.6342C33.921 29.6011 33.921 27.6567 33.6342 25.7443ZM37.4995 23.8212H33.2411C32.7504 21.8903 31.9264 20.06 30.806 18.4126C32.2374 18.7972 33.5723 19.4771 34.7251 20.4086C35.8779 21.3401 36.823 22.5026 37.4995 23.8212ZM25.3541 18.4126C24.2338 20.06 23.4097 21.8903 22.919 23.8212H18.6606C19.3372 22.5026 20.2823 21.3401 21.4351 20.4086C22.5878 19.4771 23.9228 18.7972 25.3541 18.4126ZM18.6606 33.4366H22.919C23.4097 35.3675 24.2338 37.1978 25.3541 38.8452C23.9228 38.4606 22.5878 37.7807 21.4351 36.8492C20.2823 35.9177 19.3372 34.7552 18.6606 33.4366ZM30.806 38.8452C31.9264 37.1978 32.7504 35.3675 33.2411 33.4366H37.4995C36.823 34.7552 35.8779 35.9177 34.7251 36.8492C33.5723 37.7807 32.2374 38.4606 30.806 38.8452Z" fill="#565656"/>
</svg>
