<svg width="58" height="58" viewBox="0 0 58 58" fill="none" xmlns="http://www.w3.org/2000/svg">
<path d="M0.625 28.329C0.625 16.5273 0.625 10.6265 3.63044 6.48982C4.60107 5.15386 5.77593 3.979 7.11189 3.00837C11.2485 0.00292969 17.1494 0.00292969 28.951 0.00292969C40.7527 0.00292969 46.6535 0.00292969 50.7902 3.00837C52.1261 3.979 53.301 5.15386 54.2716 6.48982C57.2771 10.6265 57.2771 16.5273 57.2771 28.329V29.1158C57.2771 40.9175 57.2771 46.8183 54.2716 50.9549C53.301 52.2909 52.1261 53.4658 50.7902 54.4364C46.6535 57.4418 40.7527 57.4418 28.951 57.4418C17.1494 57.4418 11.2485 57.4418 7.11189 54.4364C5.77593 53.4658 4.60107 52.2909 3.63044 50.9549C0.625 46.8183 0.625 40.9175 0.625 29.1158V28.329Z" fill="#35C56E" fill-opacity="0.2"/>
<path d="M26.8013 18.9058C27.0456 18.9058 27.2799 19.0059 27.4526 19.184C27.6254 19.3622 27.7224 19.6038 27.7224 19.8557V29.9886H37.5483C37.7709 29.9886 37.9859 30.0718 38.1537 30.2227C38.3215 30.3735 38.4306 30.582 38.4609 30.8094L38.4694 30.9386C38.4694 37.2336 33.5197 41.7048 27.4154 41.7048C24.4837 41.7048 21.672 40.5038 19.599 38.3659C17.5259 36.2281 16.3613 33.3286 16.3613 30.3053C16.3613 24.0102 20.697 18.9058 26.8013 18.9058ZM30.486 15.7393C33.4177 15.7393 36.2293 16.9403 38.3024 19.0781C40.3754 21.2159 41.54 24.1154 41.54 27.1388C41.54 27.3907 41.443 27.6323 41.2702 27.8105C41.0975 27.9886 40.8632 28.0887 40.6188 28.0887H30.486C30.2417 28.0887 30.0073 27.9886 29.8346 27.8105C29.6618 27.6323 29.5648 27.3907 29.5648 27.1388V16.6892C29.5648 16.4373 29.6618 16.1956 29.8346 16.0175C30.0073 15.8393 30.2417 15.7393 30.486 15.7393Z" fill="#35C56E"/>
</svg>
