<svg width="66" height="65" viewBox="0 0 66 65" fill="none" xmlns="http://www.w3.org/2000/svg">
<path d="M0.888672 31.947C0.888672 17.1103 0.888672 9.69197 5.49784 5.0828C10.107 0.473633 17.5254 0.473633 32.362 0.473633H33.9357C48.7724 0.473633 56.1907 0.473633 60.7999 5.0828C65.4091 9.69197 65.4091 17.1103 65.4091 31.947V33.5207C65.4091 48.3574 65.4091 55.7757 60.7999 60.3849C56.1907 64.994 48.7724 64.994 33.9357 64.994H32.3621C17.5254 64.994 10.107 64.994 5.49784 60.3849C0.888672 55.7757 0.888672 48.3574 0.888672 33.5207V31.947Z" fill="#FF6250" fill-opacity="0.2"/>
<path opacity="0.2" d="M25.6226 44.3903C25.5265 44.4878 25.4119 44.5653 25.2856 44.6182C25.1593 44.6711 25.0237 44.6983 24.8867 44.6983C24.7498 44.6983 24.6142 44.6711 24.4879 44.6182C24.3616 44.5653 24.247 44.4878 24.1509 44.3903L21.4917 41.731C21.3941 41.6349 21.3166 41.5204 21.2637 41.394C21.2108 41.2677 21.1836 41.1321 21.1836 40.9952C21.1836 40.8582 21.2108 40.7227 21.2637 40.5963C21.3166 40.47 21.3941 40.3555 21.4917 40.2594L35.2139 26.5371L39.3448 30.668L25.6226 44.3903Z" fill="#FF6250"/>
<path d="M44.5078 32.7334V38.9297" stroke="#FF6250" stroke-width="1.86873" stroke-linecap="round" stroke-linejoin="round"/>
<path d="M41.4102 35.832H47.6065" stroke="#FF6250" stroke-width="1.86873" stroke-linecap="round" stroke-linejoin="round"/>
<path d="M27.4688 21.374V26.5376" stroke="#FF6250" stroke-width="1.86873" stroke-linecap="round" stroke-linejoin="round"/>
<path d="M24.8867 23.9551H30.0503" stroke="#FF6250" stroke-width="1.86873" stroke-linecap="round" stroke-linejoin="round"/>
<path d="M38.3125 39.9629V44.0938" stroke="#FF6250" stroke-width="1.86873" stroke-linecap="round" stroke-linejoin="round"/>
<path d="M36.2461 42.0283H40.377" stroke="#FF6250" stroke-width="1.86873" stroke-linecap="round" stroke-linejoin="round"/>
<path d="M40.6902 21.0676L21.4939 40.2639C21.0906 40.6672 21.0906 41.3211 21.4939 41.7244L24.1639 44.3943C24.5672 44.7976 25.2211 44.7976 25.6244 44.3943L44.8206 25.1981C45.2239 24.7948 45.2239 24.1409 44.8206 23.7376L42.1507 21.0676C41.7474 20.6643 41.0935 20.6643 40.6902 21.0676Z" stroke="#FF6250" stroke-width="1.86873" stroke-linecap="round" stroke-linejoin="round"/>
<path d="M35.2129 26.5371L39.3438 30.668" stroke="#FF6250" stroke-width="1.86873" stroke-linecap="round" stroke-linejoin="round"/>
</svg>
