<svg width="66" height="65" viewBox="0 0 66 65" fill="none" xmlns="http://www.w3.org/2000/svg">
<path d="M0.789062 31.947C0.789062 17.1103 0.789062 9.69197 5.39823 5.0828C10.0074 0.473633 17.4257 0.473633 32.2624 0.473633H33.8361C48.6728 0.473633 56.0911 0.473633 60.7003 5.0828C65.3095 9.69197 65.3095 17.1103 65.3095 31.947V33.5207C65.3095 48.3574 65.3095 55.7757 60.7003 60.3849C56.0911 64.994 48.6728 64.994 33.8361 64.994H32.2624C17.4257 64.994 10.0074 64.994 5.39823 60.3849C0.789062 55.7757 0.789062 48.3574 0.789062 33.5207V31.947Z" fill="#009379" fill-opacity="0.2"/>
<path opacity="0.2" d="M39.3753 25.0918C39.9662 26.1679 40.2769 27.3754 40.2789 28.603V29.1065C40.281 29.5727 40.1233 30.0256 39.832 30.3897C39.5407 30.7538 39.1335 31.0071 38.6782 31.1074C36.831 31.5203 34.9425 31.7195 33.0499 31.7012C31.1572 31.7195 29.2687 31.5203 27.4216 31.1074C26.9662 31.0071 26.559 30.7538 26.2678 30.3897C25.9765 30.0256 25.8188 29.5727 25.8208 29.1065V28.7063C25.8216 27.4392 26.1507 26.1939 26.7761 25.0918C21.9352 26.0858 18.5918 28.2158 18.5918 30.6685C18.5918 34.0894 25.0592 36.8648 33.0499 36.8648C41.0405 36.8648 47.508 34.0894 47.508 30.6685C47.508 28.2158 44.1903 26.0987 39.3753 25.0918Z" fill="#009379"/>
<path d="M38.3164 40.5693L38.8199 43.6159" stroke="#009379" stroke-width="1.86873" stroke-linecap="round" stroke-linejoin="round"/>
<path d="M33.0488 40.9951V45.126" stroke="#009379" stroke-width="1.86873" stroke-linecap="round" stroke-linejoin="round"/>
<path d="M27.7827 40.5693L27.2793 43.6159" stroke="#009379" stroke-width="1.86873" stroke-linecap="round" stroke-linejoin="round"/>
<path d="M39.3753 25.0918C44.1903 26.0987 47.508 28.2158 47.508 30.6685C47.508 34.0894 41.0405 36.8648 33.0499 36.8648C25.0592 36.8648 18.5918 34.0894 18.5918 30.6685C18.5918 28.2158 21.9352 26.0858 26.7761 25.0918" stroke="#009379" stroke-width="1.86873" stroke-linecap="round" stroke-linejoin="round"/>
<path d="M25.8203 29.1061C25.8183 29.5723 25.976 30.0252 26.2673 30.3893C26.5585 30.7534 26.9657 31.0067 27.421 31.107C29.2682 31.5199 31.1567 31.7191 33.0494 31.7008C34.942 31.7191 36.8305 31.5199 38.6777 31.107C39.133 31.0067 39.5402 30.7534 39.8315 30.3893C40.1227 30.0252 40.2805 29.5723 40.2784 29.1061V28.6027C40.2785 27.6457 40.0885 26.6982 39.7196 25.8152C39.3507 24.9322 38.8101 24.1312 38.1292 23.4587C37.4483 22.7863 36.6407 22.2557 35.7532 21.8977C34.8657 21.5398 33.9159 21.3616 32.959 21.3736C28.983 21.4252 25.8203 24.7429 25.8203 28.7059V29.1061Z" stroke="#009379" stroke-width="1.86873" stroke-linecap="round" stroke-linejoin="round"/>
</svg>
