<svg width="66" height="65" viewBox="0 0 66 65" fill="none" xmlns="http://www.w3.org/2000/svg">
<path d="M0.691406 31.947C0.691406 17.1103 0.691406 9.69197 5.30057 5.0828C9.90974 0.473633 17.3281 0.473633 32.1648 0.473633H33.7384C48.5751 0.473633 55.9935 0.473633 60.6026 5.0828C65.2118 9.69197 65.2118 17.1103 65.2118 31.947V33.5207C65.2118 48.3574 65.2118 55.7757 60.6026 60.3849C55.9935 64.994 48.5751 64.994 33.7384 64.994H32.1648C17.3281 64.994 9.90974 64.994 5.30057 60.3849C0.691406 55.7757 0.691406 48.3574 0.691406 33.5207V31.947Z" fill="#F8D57E" fill-opacity="0.2"/>
<path opacity="0.2" d="M29.6465 41.8213L23.8632 36.0381L21.3202 43.0477C21.2498 43.2316 21.2343 43.432 21.2754 43.6245C21.3164 43.8171 21.4124 43.9937 21.5516 44.1329C21.6909 44.2722 21.8674 44.3681 22.06 44.4092C22.2526 44.4503 22.4529 44.4347 22.6369 44.3644L29.6465 41.8213Z" fill="#F8D57E"/>
<path opacity="0.2" d="M42.0882 35.7572L42.0884 35.7574C42.205 35.873 42.2905 36.0162 42.3369 36.1737C42.3834 36.3312 42.3893 36.4979 42.354 36.6583C42.3188 36.8187 42.2436 36.9676 42.1354 37.0912C42.0272 37.2147 41.8895 37.3089 41.7352 37.365L36.4775 39.2757L26.4094 29.2077L28.3201 23.9499C28.3762 23.7956 28.4704 23.6579 28.594 23.5497C28.7175 23.4415 28.8664 23.3663 29.0268 23.3311C29.1872 23.2959 29.3539 23.3017 29.5114 23.3482C29.6689 23.3946 29.8121 23.4801 29.9278 23.5967L29.9279 23.5969L42.0882 35.7572Z" fill="#F8D57E" stroke="#F8D57E" stroke-width="0.116796"/>
<path d="M21.3202 43.0482L28.2652 23.93C28.3246 23.7664 28.4245 23.6205 28.5554 23.5058C28.6864 23.3911 28.8442 23.3114 29.0142 23.2741C29.1842 23.2367 29.3609 23.2429 29.5279 23.2922C29.6948 23.3414 29.8466 23.432 29.9692 23.5556L42.1295 35.7159C42.2531 35.8385 42.3437 35.9903 42.3929 36.1572C42.4421 36.3242 42.4484 36.5009 42.411 36.6709C42.3737 36.8409 42.294 36.9987 42.1793 37.1296C42.0646 37.2606 41.9187 37.3604 41.7551 37.4199L22.6369 44.3649C22.4529 44.4352 22.2526 44.4508 22.06 44.4097C21.8674 44.3686 21.6909 44.2727 21.5516 44.1335C21.4124 43.9942 21.3164 43.8176 21.2754 43.6251C21.2343 43.4325 21.2498 43.2321 21.3202 43.0482V43.0482Z" stroke="#F8D57E" stroke-width="1.86873" stroke-linecap="round" stroke-linejoin="round"/>
<path d="M38.1152 25.5039C38.1152 25.5039 38.1152 22.4058 41.2134 22.4058C44.3116 22.4058 44.3116 19.3076 44.3116 19.3076" stroke="#F8D57E" stroke-width="1.86873" stroke-linecap="round" stroke-linejoin="round"/>
<path d="M29.6465 41.8213L23.8633 36.0381" stroke="#F8D57E" stroke-width="1.86873" stroke-linecap="round" stroke-linejoin="round"/>
<path d="M35.0166 18.2754V21.3736" stroke="#F8D57E" stroke-width="1.86873" stroke-linecap="round" stroke-linejoin="round"/>
<path d="M44.3105 30.668L46.376 32.7334" stroke="#F8D57E" stroke-width="1.86873" stroke-linecap="round" stroke-linejoin="round"/>
<path d="M44.3105 26.5366L47.4087 25.5039" stroke="#F8D57E" stroke-width="1.86873" stroke-linecap="round" stroke-linejoin="round"/>
<path d="M26.3418 29.2227L36.4625 39.3433" stroke="#F8D57E" stroke-width="1.86873" stroke-linecap="round" stroke-linejoin="round"/>
</svg>
