<svg width="62" height="62" viewBox="0 0 62 62" fill="none" xmlns="http://www.w3.org/2000/svg">
<path d="M0.855469 31.2228C0.855469 17.5307 0.855469 10.6846 4.82884 6.21325C5.23946 5.75117 5.67695 5.31368 6.13903 4.90306C10.6104 0.929688 17.4565 0.929688 31.1486 0.929688C44.8407 0.929688 51.6867 0.929688 56.1581 4.90306C56.6202 5.31368 57.0577 5.75117 57.4683 6.21325C61.4417 10.6846 61.4417 17.5307 61.4417 31.2228C61.4417 44.9149 61.4417 51.761 57.4683 56.2324C57.0577 56.6944 56.6202 57.1319 56.1581 57.5425C51.6867 61.5159 44.8407 61.5159 31.1486 61.5159C17.4565 61.5159 10.6104 61.5159 6.13903 57.5425C5.67695 57.1319 5.23946 56.6944 4.82884 56.2324C0.855469 51.761 0.855469 44.9149 0.855469 31.2228Z" fill="#8DEF5E" fill-opacity="0.2"/>
<path d="M44.0064 45.7799C40.6369 45.7799 37.3078 45.0456 34.0191 43.577C30.7304 42.1084 27.7383 40.0258 25.0426 37.329C22.347 34.6334 20.2649 31.6412 18.7963 28.3526C17.3277 25.0639 16.5929 21.7348 16.5918 18.3652C16.5918 17.88 16.7535 17.4757 17.077 17.1522C17.4005 16.8287 17.8048 16.667 18.29 16.667H24.8404C25.2178 16.667 25.5548 16.7953 25.8513 17.0519C26.1478 17.3086 26.323 17.6115 26.377 17.9609L27.4283 23.6217C27.4822 24.053 27.4687 24.4169 27.3878 24.7135C27.3069 25.01 27.1587 25.2661 26.943 25.4817L23.0209 29.4443C23.56 30.4417 24.2 31.4051 24.9407 32.3346C25.6815 33.264 26.4972 34.1606 27.3878 35.0243C28.2235 35.8599 29.0995 36.6352 30.0161 37.3501C30.9326 38.0649 31.903 38.7184 32.9274 39.3103L36.7282 35.5095C36.9708 35.2669 37.2878 35.0852 37.6792 34.9644C38.0706 34.8437 38.4545 34.8097 38.8308 34.8625L44.4108 35.9947C44.7881 36.1025 45.0981 36.2982 45.3408 36.5818C45.5834 36.8654 45.7047 37.1819 45.7047 37.5312V44.0816C45.7047 44.5668 45.5429 44.9712 45.2194 45.2946C44.896 45.6181 44.4916 45.7799 44.0064 45.7799Z" fill="#8DEF5E"/>
</svg>
