<svg width="62" height="62" viewBox="0 0 62 62" fill="none" xmlns="http://www.w3.org/2000/svg">
<path d="M0.755859 30.7228C0.755859 17.0307 0.755859 10.1846 4.72923 5.71325C5.13985 5.25117 5.57734 4.81368 6.03942 4.40306C10.5108 0.429688 17.3569 0.429688 31.049 0.429688C44.7411 0.429688 51.5871 0.429688 56.0585 4.40306C56.5206 4.81368 56.9581 5.25117 57.3687 5.71325C61.3421 10.1846 61.3421 17.0307 61.3421 30.7228C61.3421 44.4149 61.3421 51.261 57.3687 55.7324C56.9581 56.1944 56.5206 56.6319 56.0585 57.0425C51.5871 61.0159 44.7411 61.0159 31.049 61.0159C17.3569 61.0159 10.5108 61.0159 6.03942 57.0425C5.57734 56.6319 5.13985 56.1944 4.72923 55.7324C0.755859 51.261 0.755859 44.4149 0.755859 30.7228Z" fill="#005E93" fill-opacity="0.2"/>
<path fill-rule="evenodd" clip-rule="evenodd" d="M26.196 24.6568C26.196 23.37 26.7072 22.1358 27.6172 21.2258C28.5272 20.3159 29.7613 19.8047 31.0482 19.8047C32.3351 19.8047 33.5692 20.3159 34.4792 21.2258C35.3891 22.1358 35.9003 23.37 35.9003 24.6568C35.9003 25.9437 35.3891 27.1779 34.4792 28.0878C33.5692 28.9978 32.3351 29.509 31.0482 29.509C29.7613 29.509 28.5272 28.9978 27.6172 28.0878C26.7072 27.1779 26.196 25.9437 26.196 24.6568ZM26.196 31.935C24.5875 31.935 23.0448 32.5741 21.9073 33.7115C20.7699 34.8489 20.1309 36.3916 20.1309 38.0002C20.1309 38.9654 20.5143 39.891 21.1967 40.5735C21.8792 41.2559 22.8048 41.6393 23.77 41.6393H38.3264C39.2916 41.6393 40.2172 41.2559 40.8996 40.5735C41.5821 39.891 41.9655 38.9654 41.9655 38.0002C41.9655 36.3916 41.3265 34.8489 40.1891 33.7115C39.0516 32.5741 37.5089 31.935 35.9003 31.935H26.196Z" fill="#005E93"/>
</svg>
