<svg width="58" height="58" viewBox="0 0 58 58" fill="none" xmlns="http://www.w3.org/2000/svg">
<rect x="1.18126" y="1.36974" width="55.5534" height="55.5534" rx="12.1279" stroke="#ECEBFF" stroke-width="0.782443"/>
<path d="M29 15.6133C26.1016 15.6131 23.3202 16.7777 21.2605 18.854C19.2007 20.9302 18.029 23.7503 18 26.7012C18 34.3732 27.6938 42.9132 28.1063 43.2772C28.3553 43.4941 28.6723 43.6133 29 43.6133C29.3277 43.6133 29.6447 43.4941 29.8937 43.2772C30.375 42.9132 40 34.3732 40 26.7012C39.971 23.7503 38.7993 20.9302 36.7395 18.854C34.6798 16.7777 31.8984 15.6131 29 15.6133ZM29 40.3232C26.7037 38.0972 20.75 31.9232 20.75 26.7012C20.75 24.4734 21.6192 22.3369 23.1664 20.7616C24.7135 19.1863 26.812 18.3013 29 18.3013C31.188 18.3013 33.2865 19.1863 34.8336 20.7616C36.3808 22.3369 37.25 24.4734 37.25 26.7012C37.25 31.8812 31.2963 38.0972 29 40.3232Z" fill="#565656"/>
<path d="M29 23.6133C28.2089 23.6133 27.4355 23.8479 26.7777 24.2874C26.1199 24.7269 25.6072 25.3516 25.3045 26.0825C25.0017 26.8135 24.9225 27.6177 25.0769 28.3936C25.2312 29.1696 25.6122 29.8823 26.1716 30.4417C26.731 31.0011 27.4437 31.3821 28.2196 31.5364C28.9956 31.6908 29.7998 31.6115 30.5307 31.3088C31.2616 31.006 31.8864 30.4934 32.3259 29.8356C32.7654 29.1778 33 28.4044 33 27.6133C33 26.5524 32.5786 25.535 31.8284 24.7849C31.0783 24.0347 30.0609 23.6133 29 23.6133ZM29 29.3276C28.6609 29.3276 28.3295 29.227 28.0476 29.0387C27.7657 28.8503 27.546 28.5826 27.4162 28.2693C27.2865 27.9561 27.2525 27.6114 27.3187 27.2788C27.3848 26.9463 27.5481 26.6408 27.7878 26.4011C28.0276 26.1614 28.333 25.9981 28.6656 25.9319C28.9981 25.8658 29.3428 25.8997 29.656 26.0295C29.9693 26.1592 30.237 26.379 30.4254 26.6609C30.6137 26.9428 30.7143 27.2742 30.7143 27.6133C30.7143 28.0679 30.5337 28.504 30.2122 28.8255C29.8907 29.147 29.4547 29.3276 29 29.3276Z" fill="#565656"/>
</svg>
