<svg width="416" height="190" viewBox="0 0 416 190" fill="none" xmlns="http://www.w3.org/2000/svg">
<path d="M208 13.4902C165.67 13.4902 165.67 13.4902 165.67 55.8203C165.67 98.1504 165.67 98.1504 208 98.1504C250.33 98.1504 250.33 98.1504 250.33 55.8203C250.33 13.4902 250.33 13.4902 208 13.4902Z" fill="#0A185F"/>
<path d="M177.139 55.6781V49.7651H181.919C182.519 49.7651 183.071 49.5491 183.48 49.1171C183.888 48.6851 184.08 48.1181 184.08 47.4701C184.08 46.8221 183.888 46.2552 183.48 45.8232C183.071 45.4182 182.543 45.2022 181.943 45.2022H177.139V42.5022C177.139 41.8542 177.331 41.3142 177.739 40.9092C178.148 40.4772 178.652 40.2612 179.228 40.2612H181.895C182.495 40.2612 183.023 40.0452 183.432 39.6132C183.84 39.1812 184.032 38.6142 184.032 37.9662C184.032 37.3182 183.84 36.7512 183.432 36.3192C183.023 35.9142 182.495 35.6982 181.895 35.6982H179.252C177.451 35.6982 175.914 36.3462 174.689 37.6692C173.464 38.9652 172.863 40.5852 172.863 42.5292V55.7051C172.863 56.3531 173.055 56.9201 173.464 57.3521C173.824 57.7571 174.352 57.9731 174.977 57.9731C175.577 57.9731 176.106 57.7571 176.514 57.3521C176.947 56.8931 177.139 56.3531 177.139 55.6781Z" fill="white"/>
<path d="M175.001 58.1622C174.305 58.1622 173.752 57.9192 173.344 57.4602C172.888 57.0282 172.647 56.4073 172.647 55.6783V42.5294C172.647 41.5304 172.792 40.6124 173.104 39.7754C173.416 38.9384 173.896 38.1824 174.521 37.5074C175.169 36.8324 175.866 36.3194 176.659 35.9954C177.451 35.6174 178.316 35.4824 179.253 35.4824H181.919C182.591 35.4824 183.168 35.7254 183.6 36.1574C184.033 36.6164 184.273 37.2374 184.273 37.9664C184.273 38.6954 184.057 39.2894 183.6 39.7754C183.168 40.2344 182.591 40.4774 181.919 40.4774H179.253C178.724 40.4774 178.268 40.6934 177.908 41.0444C177.547 41.4494 177.379 41.9084 177.379 42.4754V44.9323H181.967C182.639 44.9323 183.216 45.1753 183.648 45.6073C184.081 46.0663 184.321 46.6873 184.321 47.4163C184.321 48.1453 184.105 48.7393 183.648 49.2253C183.216 49.7113 182.639 49.9543 181.943 49.9543H177.355V55.6513C177.355 56.3803 177.139 56.9742 176.683 57.4602C176.226 57.9462 175.674 58.1622 175.001 58.1622ZM179.253 35.9144C177.499 35.9144 176.01 36.5354 174.857 37.8044C173.68 39.0464 173.104 40.6664 173.104 42.5024V55.6783C173.104 56.2723 173.272 56.7853 173.632 57.1363C173.969 57.5142 174.449 57.7032 175.001 57.7032C175.554 57.7032 176.034 57.5142 176.394 57.1363C176.755 56.7583 176.923 56.2723 176.923 55.6783V49.5493H181.895C182.471 49.5493 182.952 49.3333 183.312 48.9553C183.672 48.5773 183.84 48.0643 183.84 47.4703C183.84 46.8763 183.672 46.3633 183.312 46.0123C182.952 45.6343 182.471 45.4453 181.919 45.4453H176.923V42.5564C176.923 42.2054 176.971 41.8814 177.091 41.5844C177.211 41.2874 177.355 41.0444 177.595 40.8014C178.028 40.3424 178.604 40.0994 179.229 40.0994H181.895C182.447 40.0994 182.928 39.9104 183.288 39.5324C183.648 39.1274 183.816 38.6414 183.816 38.0474C183.816 37.4534 183.648 36.9404 183.288 36.5894C182.928 36.2384 182.447 36.0224 181.895 36.0224L179.253 35.9144Z" fill="white"/>
<path d="M200.03 51.5474V51.3314H199.982V38.3715C199.982 37.7235 199.789 37.1565 199.405 36.7515C199.021 36.3465 198.492 36.1305 197.892 36.1305C197.315 36.1305 196.787 36.3465 196.379 36.7785C195.97 37.2105 195.778 37.7505 195.778 38.3985V42.5295C195.778 43.1775 195.586 43.7175 195.202 44.1224C194.793 44.5544 194.289 44.7704 193.713 44.7704C193.112 44.7704 192.608 44.5544 192.223 44.1224C191.815 43.6905 191.623 43.1505 191.623 42.5295V38.3715C191.623 37.7235 191.431 37.1565 191.022 36.7245C190.614 36.3195 190.086 36.1035 189.485 36.1035C188.885 36.1035 188.356 36.3195 187.972 36.7245C187.588 37.1295 187.396 37.6965 187.396 38.3445V42.4755C187.396 44.4194 187.996 46.0394 189.221 47.3354C190.446 48.6314 191.959 49.3064 193.785 49.3064C194.505 49.3064 195.202 49.1714 195.874 48.9014V51.5204C195.874 52.1684 195.682 52.7084 195.298 53.1134C194.89 53.5454 194.385 53.7614 193.809 53.7614C193.208 53.7614 192.704 53.5454 192.319 53.1134C191.911 52.6814 191.719 52.1414 191.719 51.5204V51.2234C191.719 50.5754 191.527 50.0084 191.118 49.5764C190.71 49.1444 190.182 48.9554 189.581 48.9554C188.981 48.9554 188.452 49.1714 188.068 49.5764C187.684 49.9814 187.492 50.5484 187.492 51.1964V51.4934C187.492 53.4374 188.092 55.0574 189.317 56.3533C190.542 57.6493 192.055 58.3243 193.881 58.3243C195.658 58.3243 197.195 57.6763 198.42 56.3533C199.405 55.0844 200.03 53.4644 200.03 51.5474Z" fill="white"/>
<path d="M193.665 58.5948C192.728 58.5948 191.887 58.4329 191.095 58.1089C190.302 57.7579 189.606 57.2719 188.957 56.5969C188.309 55.9219 187.852 55.1659 187.54 54.3289C187.228 53.4919 187.084 52.5739 187.084 51.5749V51.2779C187.084 50.5489 187.3 49.9549 187.756 49.4959C188.188 49.0369 188.765 48.7939 189.413 48.7939C190.086 48.7939 190.662 49.0369 191.095 49.4689C191.527 49.9279 191.767 50.5489 191.767 51.2779V51.5749C191.767 52.1419 191.96 52.6279 192.296 53.0059C192.656 53.4109 193.112 53.5729 193.641 53.5729C194.169 53.5729 194.626 53.3839 194.986 53.0059C195.346 52.6009 195.514 52.1419 195.514 51.5749V49.2799C194.914 49.4959 194.289 49.6039 193.641 49.6039C192.704 49.6039 191.863 49.4419 191.071 49.1179C190.278 48.7669 189.582 48.2809 188.933 47.6059C188.285 46.9309 187.828 46.175 187.516 45.338C187.204 44.501 187.06 43.583 187.06 42.584V38.399C187.06 37.67 187.276 37.076 187.732 36.617C188.164 36.158 188.741 35.915 189.389 35.915C190.038 35.915 190.638 36.158 191.071 36.59C191.503 37.049 191.743 37.67 191.743 38.399V42.53C191.743 43.097 191.935 43.583 192.272 43.961C192.632 44.366 193.088 44.528 193.617 44.528C194.145 44.528 194.602 44.339 194.962 43.961C195.322 43.556 195.49 43.097 195.49 42.53V38.399C195.49 38.021 195.538 37.724 195.658 37.427C195.779 37.13 195.947 36.86 196.163 36.617C196.619 36.158 197.196 35.915 197.82 35.915C198.517 35.915 199.069 36.158 199.478 36.617C199.91 37.076 200.15 37.697 200.15 38.399V51.1159H200.198V51.5479C200.198 52.5199 200.054 53.4649 199.742 54.2749C199.429 55.1119 198.949 55.8679 198.325 56.5429C197.676 57.2179 196.98 57.7309 196.187 58.0549C195.442 58.4328 194.602 58.5948 193.665 58.5948ZM189.389 49.1989C188.837 49.1989 188.357 49.3879 188.02 49.7659C187.684 50.1439 187.492 50.6299 187.492 51.2239V51.5209C187.492 53.4109 188.068 54.9769 189.245 56.2189C190.422 57.4609 191.911 58.1089 193.641 58.1089C195.346 58.1089 196.859 57.4609 198.012 56.1919C199.189 54.9229 199.766 53.3299 199.766 51.4939H199.718V38.372C199.718 37.778 199.55 37.265 199.189 36.914C198.853 36.536 198.373 36.347 197.82 36.347C197.292 36.347 196.811 36.536 196.451 36.914C196.091 37.319 195.899 37.778 195.899 38.372V42.503C195.899 42.854 195.851 43.178 195.731 43.475C195.634 43.772 195.466 44.015 195.25 44.258C194.818 44.717 194.241 44.96 193.617 44.96C193.305 44.96 192.968 44.906 192.704 44.771C192.44 44.636 192.2 44.474 191.96 44.231C191.527 43.772 191.287 43.151 191.287 42.476V38.372C191.287 37.778 191.119 37.265 190.759 36.914C190.398 36.536 189.918 36.347 189.365 36.347C188.813 36.347 188.333 36.536 187.996 36.914C187.66 37.292 187.468 37.778 187.468 38.372V42.503C187.468 44.393 188.044 45.959 189.221 47.2009C190.398 48.4429 191.887 49.0909 193.617 49.0909C194.313 49.0909 194.986 48.9559 195.634 48.7129L195.899 48.6049V51.5209C195.899 51.8719 195.851 52.1959 195.731 52.4929C195.634 52.7899 195.466 53.0329 195.25 53.2759C194.842 53.7349 194.289 54.0049 193.665 54.0049C193.353 54.0049 193.016 53.9509 192.752 53.8159C192.488 53.6809 192.248 53.5189 192.008 53.2759C191.575 52.8169 191.335 52.1959 191.335 51.5209V51.2239C191.335 50.6299 191.167 50.1169 190.807 49.7659C190.422 49.4149 189.966 49.1989 189.389 49.1989Z" fill="white"/>
<path d="M217.131 38.9118C215.114 36.7789 212.616 35.6719 209.709 35.6719H205.458C204.882 35.6719 204.377 35.9149 203.969 36.3469C203.561 36.7789 203.32 37.3189 203.32 37.9399V55.6787C203.32 56.3267 203.512 56.8937 203.897 57.2987C204.281 57.7037 204.81 57.9197 205.41 57.9197C206.01 57.9197 206.539 57.7037 206.947 57.2987C207.308 56.9207 207.5 56.4347 207.548 55.8677C207.572 56.4617 207.764 56.9747 208.124 57.3527C208.508 57.7577 209.037 57.9737 209.637 57.9737C212.568 57.9737 215.066 56.8937 217.083 54.7607C219.101 52.6007 220.086 49.9547 220.086 46.8228C220.182 43.7178 219.149 41.0718 217.131 38.9118ZM207.596 55.4897V40.2618H209.709C211.463 40.2618 212.952 40.8828 214.105 42.1518C215.282 43.4208 215.858 44.9868 215.858 46.8498C215.858 48.7128 215.282 50.2787 214.081 51.5207C212.88 52.7897 211.415 53.4377 209.709 53.4377C209.109 53.4377 208.557 53.6537 208.172 54.0857C207.836 54.4907 207.644 54.9497 207.596 55.4897Z" fill="white"/>
<path d="M209.733 58.2432C209.036 58.2432 208.484 58.0002 208.076 57.5412C207.884 57.3252 207.739 57.1092 207.619 56.8392C207.523 57.0822 207.355 57.2982 207.187 57.4872C206.755 57.9462 206.178 58.1622 205.506 58.1622C204.809 58.1622 204.257 57.9192 203.848 57.4602C203.416 57.0012 203.176 56.3802 203.176 55.6783V37.9664C203.176 37.3184 203.416 36.7244 203.872 36.2114C204.329 35.7524 204.881 35.4824 205.506 35.4824H209.757C211.246 35.4824 212.615 35.7794 213.888 36.3194C215.137 36.8594 216.314 37.6964 217.347 38.7764C218.38 39.8834 219.125 41.0984 219.653 42.4484C220.157 43.7714 220.446 45.2833 220.446 46.8763C220.446 48.4693 220.181 49.9273 219.653 51.3043C219.149 52.6273 218.38 53.8693 217.347 54.9763V55.0033H217.323C216.29 56.0833 215.137 56.9202 213.888 57.4602C212.615 57.9732 211.222 58.2432 209.733 58.2432ZM207.403 55.8942H207.811C207.836 56.4342 208.004 56.8932 208.34 57.2172C208.676 57.5952 209.157 57.7842 209.709 57.7842C212.567 57.7842 215.041 56.7042 217.011 54.6253C218.98 52.5193 219.965 49.9003 219.965 46.8493C219.965 43.7984 218.956 41.1794 217.011 39.0734C214.993 37.0214 212.543 35.9414 209.709 35.9414H205.458C204.953 35.9414 204.497 36.1574 204.113 36.5354C203.728 36.9404 203.56 37.4264 203.56 37.9664V55.7052C203.56 56.2992 203.728 56.8122 204.089 57.1632C204.425 57.5412 204.905 57.7302 205.458 57.7302C206.01 57.7302 206.49 57.5412 206.851 57.1632C207.187 56.8392 207.355 56.4072 207.403 55.8942ZM207.811 55.5163L207.403 55.4893V40.0454H209.733C210.646 40.0454 211.462 40.2074 212.231 40.5314C213 40.8554 213.672 41.3414 214.297 41.9894C214.897 42.6374 215.378 43.3664 215.666 44.1764C215.954 44.9863 216.122 45.8773 216.122 46.8493C216.122 47.7943 215.978 48.6853 215.666 49.4953C215.354 50.3053 214.873 51.0343 214.297 51.6823C213.696 52.3303 213 52.8433 212.231 53.1403C211.462 53.4643 210.646 53.6263 209.757 53.6263C209.181 53.6263 208.724 53.8153 208.388 54.2203C208.028 54.5983 207.86 55.0303 207.811 55.5163ZM207.811 40.5044V54.2473C207.884 54.1393 207.956 54.0583 208.028 53.9503C208.436 53.4643 209.012 53.2213 209.709 53.2213C211.366 53.2213 212.808 52.6003 213.936 51.3853C215.089 50.1703 215.642 48.6313 215.642 46.8763C215.642 45.0403 215.089 43.5824 213.936 42.3404C212.808 41.1254 211.366 40.5044 209.685 40.5044H207.811Z" fill="white"/>
<path fill-rule="evenodd" clip-rule="evenodd" d="M237.284 44.338C237.356 44.365 237.404 44.473 237.356 44.554C237.284 44.689 237.236 44.797 237.188 44.932C237.092 45.148 236.995 45.364 236.875 45.553C236.803 45.715 236.803 45.823 236.899 45.958C237.019 46.12 237.116 46.282 237.26 46.444C237.356 46.5789 237.452 46.7139 237.548 46.8489C237.596 46.9299 237.572 47.0379 237.524 47.0919C237.428 47.1459 237.356 47.1999 237.284 47.2809C237.092 47.4159 236.875 47.5779 236.683 47.7129C236.539 47.8209 236.491 47.9289 236.515 48.1179C236.563 48.3879 236.587 48.6309 236.635 48.8739C236.635 48.9819 236.659 49.0899 236.683 49.1979C236.707 49.2789 236.635 49.3869 236.539 49.3869H236.467C236.131 49.4139 235.794 49.4409 235.458 49.4409C235.314 49.4409 235.266 49.5219 235.218 49.6569C235.098 50.0349 234.978 50.3589 234.834 50.7369C234.81 50.8179 234.714 50.8719 234.642 50.8179L234.497 50.7369C234.425 50.7099 234.377 50.6829 234.305 50.6289C234.113 50.5209 233.921 50.4129 233.729 50.3049C233.561 50.1699 233.441 50.2239 233.296 50.3589C233.248 50.3859 233.224 50.4399 233.176 50.4669C232.96 50.6559 232.744 50.8449 232.504 51.0069C232.432 51.0609 232.336 51.0339 232.312 50.9799C232.264 50.8719 232.192 50.7909 232.144 50.7099C231.999 50.4669 231.855 50.2509 231.735 50.0079C231.663 49.8729 231.591 49.8459 231.471 49.8729C231.135 49.9539 230.774 50.0079 230.39 50.0619C230.318 50.0889 230.222 50.0079 230.222 49.8999C230.198 49.7109 230.198 49.5219 230.198 49.3329C230.198 49.1439 230.174 48.9549 230.174 48.7659C230.174 48.5769 230.15 48.4959 229.982 48.4419C229.67 48.3069 229.333 48.1719 228.997 48.0369C228.925 48.0099 228.877 47.9019 228.925 47.8209C228.997 47.6859 229.069 47.5509 229.117 47.4159C229.213 47.2269 229.309 47.0109 229.405 46.8219C229.477 46.6869 229.477 46.5789 229.381 46.444C229.165 46.147 228.949 45.877 228.709 45.553C228.661 45.472 228.685 45.364 228.733 45.31C229.021 45.094 229.285 44.905 229.573 44.743C229.742 44.635 229.766 44.527 229.742 44.338C229.694 44.068 229.67 43.825 229.622 43.555C229.622 43.447 229.598 43.339 229.573 43.231C229.549 43.15 229.622 43.042 229.718 43.042C229.886 43.042 230.054 43.015 230.222 43.015C230.39 43.015 230.582 43.015 230.726 42.988C230.895 42.988 230.967 42.907 231.015 42.772C231.135 42.421 231.255 42.097 231.399 41.719C231.423 41.638 231.519 41.584 231.591 41.638C231.639 41.665 231.687 41.692 231.735 41.719C231.879 41.8 232.023 41.854 232.12 41.962C232.504 42.286 232.864 42.286 233.2 41.854C233.321 41.719 233.441 41.611 233.585 41.53C233.633 41.503 233.657 41.476 233.705 41.449C233.777 41.395 233.873 41.422 233.897 41.503C234.089 41.827 234.281 42.124 234.449 42.448C234.521 42.583 234.618 42.664 234.762 42.637C235.002 42.583 235.218 42.556 235.458 42.529C235.578 42.502 235.698 42.502 235.794 42.475C235.867 42.448 235.963 42.529 235.963 42.637C235.987 42.826 235.987 43.015 235.987 43.204C235.987 43.393 236.011 43.582 236.011 43.771C236.011 43.96 236.083 44.041 236.227 44.095C236.587 44.068 236.875 44.203 237.14 44.311C237.236 44.311 237.26 44.311 237.284 44.338ZM234.089 44.743C234.209 44.554 233.993 44.365 233.873 44.527C233.849 44.554 233.849 44.554 233.849 44.581C233.441 45.148 233.032 45.742 232.6 46.309C232.408 46.5519 232.216 46.8219 232.047 47.0649C231.999 47.1459 231.951 47.1999 231.879 47.2809C231.759 47.4429 231.951 47.6589 232.096 47.4969L232.12 47.4699C232.12 47.4699 232.144 47.4429 232.144 47.4159C232.504 46.9029 232.864 46.39 233.248 45.904C233.513 45.553 233.801 45.175 234.065 44.797L234.089 44.743ZM234.545 47.1459C234.425 47.8479 233.897 48.1719 233.417 47.8479C233.224 47.7129 233.104 47.4969 233.08 47.2539C233.056 46.8759 233.104 46.5249 233.369 46.2549C233.609 46.039 233.873 45.985 234.185 46.147C234.473 46.309 234.57 46.552 234.57 46.903C234.57 47.0379 234.57 47.0919 234.545 47.1459ZM234.209 47.1189C234.209 47.0649 234.209 47.0379 234.209 46.9839C234.209 46.9029 234.209 46.8219 234.209 46.7139C234.185 46.525 234.089 46.4439 233.945 46.3899C233.777 46.3629 233.657 46.417 233.609 46.5789C233.537 46.8489 233.489 47.0919 233.489 47.3619C233.489 47.4699 233.633 47.6319 233.729 47.6319C233.849 47.6589 233.993 47.5509 234.065 47.4699C234.137 47.4159 234.161 47.3349 234.185 47.2269C234.185 47.2269 234.185 47.1729 234.209 47.1189ZM231.639 45.985C232.12 46.3089 232.648 45.985 232.768 45.283C232.792 45.229 232.792 45.121 232.792 45.04C232.792 44.689 232.696 44.446 232.408 44.284C232.12 44.122 231.855 44.176 231.591 44.392C231.327 44.662 231.279 45.013 231.303 45.391C231.327 45.634 231.447 45.85 231.639 45.985ZM232.432 45.094C232.432 45.148 232.432 45.175 232.432 45.229C232.408 45.283 232.408 45.31 232.384 45.364C232.36 45.445 232.336 45.553 232.264 45.607C232.192 45.688 232.047 45.796 231.927 45.769C231.831 45.769 231.687 45.607 231.687 45.499C231.687 45.229 231.735 44.986 231.807 44.716C231.855 44.554 231.975 44.5 232.144 44.527C232.288 44.581 232.384 44.662 232.408 44.851C232.432 44.905 232.432 45.013 232.432 45.094Z" fill="white"/>
<path d="M227.171 56.1113C227.772 56.5973 228.828 56.8673 229.621 56.1653C231.567 56.9483 233.56 57.0563 235.578 56.4893C237.571 55.9223 239.205 54.7613 240.502 53.0873C241.03 52.3853 241.511 51.6294 241.847 50.7924C242.423 49.4424 242.688 47.9844 242.712 46.5264C242.712 45.6354 242.591 44.7714 242.399 43.9074C242.087 42.6384 241.559 41.4774 240.862 40.4244C240.021 39.2095 238.989 38.2645 237.74 37.5085C236.226 36.6175 234.617 36.2125 232.912 36.2665C231.903 36.2935 230.942 36.4825 230.029 36.8065C227.868 37.5895 226.138 39.0205 224.937 41.0994C223.592 43.4214 223.184 45.9324 223.64 48.6324C223.88 49.8744 224.313 51.0354 224.937 52.1153C224.889 52.1963 224.865 52.2773 224.841 52.3313C224.817 52.4123 224.793 52.4933 224.793 52.5743C224.625 53.4113 224.913 54.1133 225.442 54.5993C225.946 55.0853 226.571 55.5983 227.171 56.1113ZM226.138 47.2554C225.754 43.1784 228.54 39.5335 232.311 39.1015C236.178 38.6695 239.637 41.6664 239.997 45.7974C240.334 49.8744 237.595 53.5193 233.728 53.8973C229.861 54.3563 226.499 51.3324 226.138 47.2554Z" fill="white"/>
<path d="M233.008 57.4062C231.879 57.4062 230.774 57.1902 229.693 56.8122C228.756 57.4332 227.579 57.2172 226.835 56.5692C226.282 56.1102 225.634 55.5432 225.033 54.9492C224.337 54.2472 224.049 53.3292 224.241 52.3842C224.265 52.2762 224.289 52.1952 224.313 52.1143C223.736 51.0613 223.304 49.9273 223.088 48.7123V48.6853C222.848 47.2813 222.824 45.8773 223.04 44.5813C223.256 43.3123 223.712 42.0703 224.361 40.9093L224.433 40.7743C225.706 38.6144 227.507 37.1024 229.813 36.2654C230.822 35.8874 231.855 35.7254 232.84 35.6984C233.752 35.6714 234.617 35.7794 235.458 36.0224C236.322 36.2384 237.139 36.5894 237.932 37.0484C238.604 37.4534 239.181 37.8854 239.733 38.3714C240.286 38.8844 240.79 39.4784 241.222 40.0993C241.607 40.6393 241.943 41.2603 242.207 41.8543C242.471 42.4483 242.688 43.0963 242.88 43.7983C243.096 44.7433 243.216 45.6613 243.216 46.5523V46.5793C243.192 48.1723 242.904 49.6843 242.303 51.0613C241.919 51.9793 241.439 52.7892 240.886 53.4912C239.493 55.2732 237.764 56.4612 235.698 57.0822C234.785 57.2712 233.896 57.4062 233.008 57.4062ZM229.501 55.4892L229.789 55.6242C231.591 56.3532 233.488 56.4612 235.41 55.9212H235.434C237.259 55.4082 238.844 54.3282 240.069 52.7352C240.55 52.1142 241.006 51.3853 241.342 50.5753C241.847 49.3603 242.135 47.9833 242.159 46.5253C242.159 45.7423 242.063 44.9053 241.847 44.0683C241.559 42.8533 241.054 41.8003 240.382 40.7743C239.589 39.6404 238.628 38.7494 237.427 38.0204C236.034 37.2104 234.497 36.8054 232.864 36.8054C231.951 36.8324 231.062 36.9944 230.149 37.2914C228.084 38.0474 226.475 39.3704 225.346 41.3143V41.3413C224.073 43.5013 223.688 45.8773 224.121 48.4423C224.337 49.6303 224.769 50.7103 225.346 51.7363L225.514 52.0602L225.346 52.3842C225.322 52.4112 225.322 52.4652 225.322 52.4652C225.298 52.4922 225.298 52.5462 225.298 52.6002V52.6272C225.178 53.1942 225.346 53.7072 225.754 54.1392C226.33 54.7062 226.979 55.2732 227.507 55.7052C227.868 56.0292 228.684 56.2992 229.261 55.7592L229.501 55.4892ZM233.032 54.5172C232.263 54.5172 231.543 54.3822 230.798 54.1392C229.861 53.8152 229.045 53.3292 228.276 52.6812C227.507 52.0333 226.907 51.2233 226.475 50.3323C226.018 49.3873 225.706 48.3613 225.61 47.3083C225.514 46.2283 225.61 45.1753 225.898 44.1493C226.186 43.1503 226.643 42.2593 227.243 41.4493C227.844 40.6393 228.588 39.9914 229.453 39.4784C230.342 38.9654 231.254 38.6414 232.263 38.5064C233.296 38.3984 234.305 38.4794 235.266 38.8304C236.202 39.1544 237.067 39.6404 237.836 40.2884C238.604 40.9363 239.205 41.7463 239.661 42.6643C240.142 43.6093 240.454 44.6623 240.55 45.7153C240.646 46.7953 240.55 47.8483 240.238 48.8743C239.949 49.8733 239.493 50.7643 238.868 51.5743C238.268 52.3842 237.499 53.0322 236.659 53.5452C235.77 54.0582 234.833 54.3552 233.8 54.4902C233.512 54.5172 233.272 54.5172 233.032 54.5172ZM226.643 47.2003C226.955 50.7373 229.765 53.3832 233.032 53.3832C233.224 53.3832 233.44 53.3832 233.68 53.3562C237.259 52.9782 239.805 49.6843 239.469 45.8773C239.301 44.0143 238.484 42.3673 237.139 41.2063C235.794 40.0184 234.113 39.5054 232.359 39.6944C228.852 40.0993 226.306 43.4743 226.643 47.2003Z" fill="white"/>
<path d="M224.625 56.542L225.634 57.433C226.283 58 226.355 58.999 225.802 59.647L224.001 61.9149C223.472 62.5899 222.536 62.6709 221.911 62.1039L220.902 61.2129C220.254 60.646 220.182 59.647 220.734 58.999L222.536 56.731C223.064 56.029 224.001 55.975 224.625 56.542Z" fill="white"/>
<path d="M176.451 66.0083C177.137 66.0083 177.713 66.2316 178.179 66.6781C178.645 67.1247 178.878 67.6942 178.878 68.3867C178.878 69.0792 178.645 69.6487 178.179 70.0952C177.713 70.5418 177.137 70.7651 176.451 70.7651H175.548V72.8037H173.81V66.0083H176.451ZM176.451 69.1148C176.645 69.1148 176.807 69.0468 176.936 68.9109C177.072 68.775 177.14 68.6003 177.14 68.3867C177.14 68.1731 177.072 68.0016 176.936 67.8722C176.807 67.7363 176.645 67.6683 176.451 67.6683H175.548V69.1148H176.451ZM187.822 72.8037L187.531 71.8232H185.269L184.978 72.8037H183.094L185.337 66.0083H187.453L189.696 72.8037H187.822ZM185.716 70.3282H187.084L186.395 68.0178L185.716 70.3282ZM198.49 72.8037L197.306 70.6098H196.684V72.8037H194.947V66.0083H197.665C198.357 66.0083 198.937 66.2316 199.403 66.6781C199.875 67.1182 200.111 67.678 200.111 68.3576C200.111 68.7653 200.008 69.1407 199.801 69.4837C199.593 69.8202 199.312 70.0888 198.956 70.2894L200.354 72.8037H198.49ZM196.684 67.6101V69.1342H197.645C197.859 69.1407 198.034 69.0727 198.17 68.9303C198.306 68.7879 198.373 68.6035 198.373 68.377C198.373 68.1505 198.306 67.966 198.17 67.8236C198.034 67.6813 197.859 67.6101 197.645 67.6101H196.684ZM210.241 66.0083V67.6877H208.561V72.8037H206.824V67.6877H205.144V66.0083H210.241ZM219.375 66.0083H221.103V72.8037H219.763L217.366 69.3866V72.8037H215.628V66.0083H216.977L219.375 69.4254V66.0083ZM228.673 71.1728H231.304V72.8037H226.936V66.0083H231.256V67.6295H228.673V68.5711H231.013V70.1729H228.673V71.1728ZM240.431 72.8037L239.247 70.6098H238.625V72.8037H236.888V66.0083H239.606C240.298 66.0083 240.877 66.2316 241.343 66.6781C241.816 67.1182 242.052 67.678 242.052 68.3576C242.052 68.7653 241.949 69.1407 241.741 69.4837C241.534 69.8202 241.253 70.0888 240.897 70.2894L242.295 72.8037H240.431ZM238.625 67.6101V69.1342H239.586C239.8 69.1407 239.975 69.0727 240.111 68.9303C240.246 68.7879 240.314 68.6035 240.314 68.377C240.314 68.1505 240.246 67.966 240.111 67.8236C239.975 67.6813 239.8 67.6101 239.586 67.6101H238.625Z" fill="white"/>
<g clip-path="url(#clip0_38_1666)">
<path d="M150.607 131.629C150.249 131.412 149.801 131.413 149.443 131.629L143.959 134.953C143.109 135.468 142.058 134.706 142.284 133.738L143.738 127.507C143.833 127.103 143.696 126.679 143.382 126.406L138.555 122.202C137.807 121.551 138.209 120.321 139.197 120.237L145.559 119.697C145.973 119.661 146.334 119.4 146.497 119.018L148.993 113.15C149.381 112.239 150.672 112.239 151.059 113.15L153.556 119.018C153.719 119.4 154.079 119.661 154.494 119.697L160.855 120.237C161.843 120.321 162.245 121.551 161.498 122.202L156.67 126.406C156.357 126.679 156.22 127.103 156.314 127.507L157.768 133.739C157.994 134.707 156.943 135.469 156.093 134.954L150.607 131.629Z" fill="#FFC500"/>
</g>
<g clip-path="url(#clip1_38_1666)">
<path d="M179.593 131.629C179.236 131.412 178.787 131.413 178.43 131.629L172.945 134.953C172.095 135.468 171.045 134.706 171.27 133.738L172.724 127.507C172.819 127.103 172.682 126.679 172.368 126.406L167.541 122.202C166.793 121.551 167.195 120.321 168.183 120.237L174.545 119.697C174.959 119.661 175.32 119.4 175.483 119.018L177.98 113.15C178.367 112.239 179.658 112.239 180.045 113.15L182.542 119.018C182.705 119.4 183.066 119.661 183.48 119.697L189.842 120.237C190.83 120.321 191.232 121.551 190.484 122.202L185.657 126.406C185.343 126.679 185.206 127.103 185.301 127.507L186.755 133.739C186.981 134.707 185.93 135.469 185.08 134.954L179.593 131.629Z" fill="#FFC500"/>
</g>
<g clip-path="url(#clip2_38_1666)">
<path d="M208.58 131.629C208.223 131.412 207.775 131.413 207.417 131.629L201.933 134.953C201.083 135.468 200.032 134.706 200.258 133.738L201.712 127.507C201.806 127.103 201.669 126.679 201.356 126.406L196.528 122.202C195.781 121.551 196.183 120.321 197.171 120.237L203.532 119.697C203.947 119.661 204.308 119.4 204.47 119.018L206.967 113.15C207.354 112.239 208.645 112.239 209.033 113.15L211.529 119.018C211.692 119.4 212.053 119.661 212.467 119.697L218.829 120.237C219.817 120.321 220.219 121.551 219.471 122.202L214.644 126.406C214.33 126.679 214.193 127.103 214.288 127.507L215.742 133.739C215.968 134.707 214.917 135.469 214.067 134.954L208.58 131.629Z" fill="#FFC500"/>
</g>
<g clip-path="url(#clip3_38_1666)">
<path d="M237.567 131.629C237.209 131.412 236.761 131.413 236.403 131.629L230.919 134.953C230.069 135.468 229.018 134.706 229.244 133.738L230.698 127.507C230.793 127.103 230.656 126.679 230.342 126.406L225.515 122.202C224.767 121.551 225.169 120.321 226.157 120.237L232.519 119.697C232.933 119.661 233.294 119.4 233.457 119.018L235.953 113.15C236.341 112.239 237.632 112.239 238.019 113.15L240.516 119.018C240.678 119.4 241.039 119.661 241.454 119.697L247.815 120.237C248.803 120.321 249.205 121.551 248.457 122.202L243.63 126.406C243.317 126.679 243.18 127.103 243.274 127.507L244.728 133.739C244.954 134.707 243.903 135.469 243.053 134.954L237.567 131.629Z" fill="#FFC500"/>
</g>
<g clip-path="url(#clip4_38_1666)">
<path fill-rule="evenodd" clip-rule="evenodd" d="M260.174 132.822L264.518 130.189C265.412 129.647 266.533 129.647 267.427 130.189L271.773 132.823L270.622 127.89C270.386 126.878 270.728 125.818 271.512 125.136L275.34 121.802L270.298 121.374C269.263 121.286 268.361 120.633 267.954 119.677L265.973 115.023L263.993 119.677C263.586 120.633 262.684 121.286 261.648 121.374L256.607 121.802L260.435 125.136C261.219 125.818 261.561 126.878 261.325 127.89L260.174 132.822ZM265.391 131.629C265.748 131.413 266.197 131.412 266.554 131.629L272.041 134.954C272.891 135.469 273.941 134.707 273.716 133.739L272.262 127.507C272.167 127.103 272.304 126.679 272.618 126.406L277.445 122.202C278.193 121.551 277.791 120.321 276.803 120.237L270.441 119.697C270.027 119.661 269.666 119.4 269.503 119.018L267.006 113.15C266.619 112.239 265.328 112.239 264.941 113.15L262.444 119.018C262.281 119.4 261.92 119.661 261.506 119.697L255.144 120.237C254.156 120.321 253.754 121.551 254.502 122.202L259.329 126.406C259.643 126.679 259.78 127.103 259.685 127.507L258.231 133.738C258.006 134.706 259.056 135.468 259.906 134.953L265.391 131.629Z" fill="#FFC500"/>
<mask id="mask0_38_1666" style="mask-type:alpha" maskUnits="userSpaceOnUse" x="254" y="112" width="24" height="24">
<path d="M266.554 131.629C266.197 131.412 265.748 131.413 265.391 131.629L259.906 134.953C259.056 135.468 258.006 134.706 258.231 133.738L259.685 127.507C259.78 127.103 259.643 126.679 259.329 126.406L254.502 122.202C253.754 121.551 254.156 120.321 255.144 120.237L261.506 119.697C261.92 119.661 262.281 119.4 262.444 119.018L264.941 113.15C265.328 112.239 266.619 112.239 267.006 113.15L269.503 119.018C269.666 119.4 270.027 119.661 270.441 119.697L276.803 120.237C277.791 120.321 278.193 121.551 277.445 122.202L272.618 126.406C272.304 126.679 272.167 127.103 272.262 127.507L273.716 133.739C273.941 134.707 272.891 135.469 272.041 134.954L266.554 131.629Z" fill="#FFC500"/>
</mask>
<g mask="url(#mask0_38_1666)">
<rect x="254.115" y="112.467" width="11.8582" height="22.6502" fill="#FFC500"/>
</g>
</g>
<path d="M185.45 167.022V165.089L191.142 156.095H192.754V158.847H191.771L187.939 164.919V165.024H195.885V167.022H185.45ZM191.85 169.511V166.432L191.876 165.567V156.095H194.168V169.511H191.85ZM199.086 169.655C198.689 169.655 198.348 169.515 198.064 169.236C197.781 168.956 197.641 168.616 197.645 168.214C197.641 167.821 197.781 167.484 198.064 167.205C198.348 166.925 198.689 166.786 199.086 166.786C199.471 166.786 199.805 166.925 200.088 167.205C200.377 167.484 200.523 167.821 200.527 168.214C200.523 168.48 200.453 168.723 200.318 168.941C200.187 169.159 200.012 169.334 199.794 169.465C199.58 169.592 199.344 169.655 199.086 169.655ZM203.008 169.511L208.714 158.218V158.126H202.091V156.095H211.229V158.172L205.53 169.511H203.008ZM218.846 155.467L214.522 171.528H212.446L216.769 155.467H218.846ZM224.997 169.694C224.123 169.694 223.342 169.53 222.652 169.203C221.962 168.871 221.414 168.417 221.007 167.84C220.606 167.264 220.392 166.605 220.365 165.862H222.724C222.767 166.412 223.005 166.862 223.438 167.212C223.87 167.557 224.39 167.729 224.997 167.729C225.473 167.729 225.896 167.62 226.267 167.401C226.639 167.183 226.931 166.88 227.145 166.491C227.359 166.102 227.464 165.659 227.46 165.161C227.464 164.655 227.357 164.205 227.139 163.812C226.92 163.419 226.621 163.111 226.241 162.888C225.861 162.661 225.425 162.548 224.931 162.548C224.529 162.543 224.134 162.617 223.746 162.77C223.357 162.923 223.049 163.124 222.822 163.373L220.627 163.013L221.328 156.095H229.11V158.126H223.339L222.953 161.683H223.032C223.28 161.39 223.632 161.148 224.086 160.956C224.54 160.759 225.038 160.661 225.58 160.661C226.392 160.661 227.117 160.853 227.754 161.237C228.392 161.617 228.894 162.141 229.261 162.81C229.628 163.478 229.811 164.242 229.811 165.102C229.811 165.989 229.606 166.779 229.196 167.474C228.789 168.164 228.224 168.707 227.499 169.105C226.778 169.498 225.944 169.694 224.997 169.694Z" fill="#B8C2CE"/>
<defs>
<clipPath id="clip0_38_1666">
<rect width="23.7164" height="22.7283" fill="white" transform="translate(138.168 112.467)"/>
</clipPath>
<clipPath id="clip1_38_1666">
<rect width="23.7164" height="22.7283" fill="white" transform="translate(167.154 112.467)"/>
</clipPath>
<clipPath id="clip2_38_1666">
<rect width="23.7164" height="22.7283" fill="white" transform="translate(196.142 112.467)"/>
</clipPath>
<clipPath id="clip3_38_1666">
<rect width="23.7164" height="22.7283" fill="white" transform="translate(225.128 112.467)"/>
</clipPath>
<clipPath id="clip4_38_1666">
<rect width="23.7164" height="22.7283" fill="white" transform="translate(254.115 112.467)"/>
</clipPath>
</defs>
</svg>
