<svg width="416" height="188" viewBox="0 0 416 188" fill="none" xmlns="http://www.w3.org/2000/svg">
<path d="M208 13.3164C166.496 13.3164 166.496 13.3164 166.496 54.8202C166.496 96.324 166.496 96.324 208 96.324C249.504 96.324 249.504 96.324 249.504 54.8202C249.504 13.3164 249.504 13.3164 208 13.3164Z" fill="#FE3838"/>
<path d="M177.741 64.4443V58.6468H182.427C183.016 58.6468 183.558 58.435 183.958 58.0114C184.358 57.5879 184.547 57.032 184.547 56.3966C184.547 55.7613 184.358 55.2053 183.958 54.7818C183.558 54.3847 183.04 54.1729 182.451 54.1729H177.741V51.5256C177.741 50.8903 177.929 50.3608 178.33 49.9637C178.73 49.5402 179.224 49.3284 179.79 49.3284H182.404C182.993 49.3284 183.511 49.1166 183.911 48.693C184.311 48.2695 184.5 47.7136 184.5 47.0782C184.5 46.4429 184.311 45.8869 183.911 45.4634C183.511 45.0663 182.993 44.8545 182.404 44.8545H179.813C178.047 44.8545 176.54 45.4898 175.339 46.787C174.138 48.0577 173.549 49.6461 173.549 51.5521V64.4708C173.549 65.1061 173.737 65.6621 174.138 66.0856C174.491 66.4827 175.009 66.6945 175.621 66.6945C176.21 66.6945 176.728 66.4827 177.128 66.0856C177.552 65.6356 177.741 65.1061 177.741 64.4443Z" fill="white"/>
<path d="M175.644 66.8787C174.961 66.8787 174.419 66.6405 174.019 66.1904C173.571 65.7668 173.336 65.158 173.336 64.4432V51.551C173.336 50.5715 173.477 49.6714 173.783 48.8508C174.09 48.0301 174.561 47.2889 175.173 46.6271C175.809 45.9652 176.492 45.4623 177.269 45.1446C178.046 44.774 178.894 44.6416 179.812 44.6416H182.426C183.086 44.6416 183.651 44.8799 184.075 45.3034C184.499 45.7535 184.734 46.3623 184.734 47.0771C184.734 47.7919 184.522 48.3743 184.075 48.8508C183.651 49.3008 183.086 49.5391 182.426 49.5391H179.812C179.294 49.5391 178.847 49.7508 178.493 50.095C178.14 50.4921 177.975 50.9421 177.975 51.498V53.9071H182.473C183.133 53.9071 183.698 54.1453 184.122 54.5689C184.546 55.0189 184.781 55.6278 184.781 56.3426C184.781 57.0573 184.569 57.6397 184.122 58.1162C183.698 58.5927 183.133 58.831 182.45 58.831H177.952V64.4167C177.952 65.1315 177.74 65.7139 177.292 66.1904C176.845 66.6669 176.303 66.8787 175.644 66.8787ZM179.812 45.0652C178.093 45.0652 176.633 45.674 175.503 46.9183C174.349 48.136 173.783 49.7244 173.783 51.5245V64.4432C173.783 65.0256 173.948 65.5286 174.302 65.8727C174.631 66.2434 175.102 66.4287 175.644 66.4287C176.186 66.4287 176.657 66.2434 177.01 65.8727C177.363 65.5021 177.528 65.0256 177.528 64.4432V58.4339H182.403C182.968 58.4339 183.439 58.2221 183.792 57.8515C184.146 57.4809 184.31 56.9779 184.31 56.3955C184.31 55.8131 184.146 55.3101 183.792 54.966C183.439 54.5954 182.968 54.41 182.426 54.41H177.528V51.5775C177.528 51.2333 177.575 50.9156 177.693 50.6244C177.811 50.3332 177.952 50.095 178.187 49.8567C178.611 49.4067 179.176 49.1684 179.789 49.1684H182.403C182.945 49.1684 183.416 48.9831 183.769 48.6125C184.122 48.2154 184.287 47.7389 184.287 47.1565C184.287 46.5741 184.122 46.0711 183.769 45.727C183.416 45.3828 182.945 45.1711 182.403 45.1711L179.812 45.0652Z" fill="white"/>
<path d="M200.184 60.3924V60.1806H200.137V47.4737C200.137 46.8384 199.949 46.2824 199.572 45.8853C199.195 45.4883 198.677 45.2765 198.088 45.2765C197.523 45.2765 197.005 45.4883 196.605 45.9118C196.204 46.3354 196.016 46.8648 196.016 47.5002V51.5505C196.016 52.1859 195.828 52.7153 195.451 53.1124C195.05 53.536 194.556 53.7477 193.991 53.7477C193.402 53.7477 192.907 53.536 192.531 53.1124C192.13 52.6888 191.942 52.1594 191.942 51.5505V47.4737C191.942 46.8384 191.753 46.2824 191.353 45.8589C190.953 45.4618 190.435 45.25 189.846 45.25C189.257 45.25 188.739 45.4618 188.362 45.8589C187.985 46.256 187.797 46.8119 187.797 47.4472V51.4976C187.797 53.4036 188.386 54.992 189.587 56.2627C190.788 57.5333 192.271 58.1952 194.061 58.1952C194.768 58.1952 195.451 58.0628 196.11 57.7981V60.3659C196.11 61.0013 195.922 61.5307 195.545 61.9278C195.145 62.3514 194.65 62.5632 194.085 62.5632C193.496 62.5632 193.002 62.3514 192.625 61.9278C192.224 61.5043 192.036 60.9748 192.036 60.3659V60.0747C192.036 59.4394 191.848 58.8835 191.447 58.4599C191.047 58.0363 190.529 57.851 189.94 57.851C189.351 57.851 188.833 58.0628 188.456 58.4599C188.079 58.857 187.891 59.4129 187.891 60.0483V60.3395C187.891 62.2455 188.48 63.8339 189.681 65.1046C190.882 66.3752 192.366 67.0371 194.155 67.0371C195.898 67.0371 197.405 66.4017 198.607 65.1046C199.572 63.8603 200.184 62.272 200.184 60.3924Z" fill="white"/>
<path d="M193.941 67.3025C193.023 67.3025 192.198 67.1437 191.421 66.826C190.644 66.4819 189.961 66.0054 189.325 65.3435C188.689 64.6817 188.242 63.9405 187.936 63.1198C187.63 62.2992 187.488 61.3991 187.488 60.4196V60.1284C187.488 59.4136 187.7 58.8312 188.148 58.3812C188.572 57.9312 189.137 57.6929 189.773 57.6929C190.432 57.6929 190.997 57.9312 191.421 58.3547C191.845 58.8048 192.081 59.4136 192.081 60.1284V60.4196C192.081 60.9755 192.269 61.452 192.599 61.8227C192.952 62.2198 193.4 62.3786 193.918 62.3786C194.436 62.3786 194.883 62.1933 195.236 61.8227C195.59 61.4256 195.755 60.9755 195.755 60.4196V58.1694C195.166 58.3812 194.554 58.4871 193.918 58.4871C192.999 58.4871 192.175 58.3283 191.398 58.0106C190.621 57.6664 189.938 57.1899 189.302 56.5281C188.666 55.8663 188.218 55.1251 187.912 54.3044C187.606 53.4838 187.465 52.5837 187.465 51.6042V47.5009C187.465 46.7862 187.677 46.2038 188.124 45.7537C188.548 45.3037 189.113 45.0654 189.749 45.0654C190.385 45.0654 190.974 45.3037 191.398 45.7272C191.822 46.1773 192.057 46.7862 192.057 47.5009V51.5512C192.057 52.1072 192.246 52.5837 192.575 52.9543C192.929 53.3514 193.376 53.5102 193.894 53.5102C194.412 53.5102 194.86 53.3249 195.213 52.9543C195.566 52.5572 195.731 52.1072 195.731 51.5512V47.5009C195.731 47.1303 195.778 46.8391 195.896 46.5479C196.014 46.2567 196.178 45.992 196.39 45.7537C196.838 45.3037 197.403 45.0654 198.015 45.0654C198.698 45.0654 199.24 45.3037 199.64 45.7537C200.064 46.2038 200.3 46.8126 200.3 47.5009V59.9696H200.347V60.3931C200.347 61.3462 200.206 62.2727 199.899 63.0669C199.593 63.8875 199.122 64.6288 198.51 65.2906C197.874 65.9524 197.191 66.4554 196.414 66.7731C195.684 67.1437 194.86 67.3025 193.941 67.3025ZM189.749 58.09C189.208 58.09 188.737 58.2753 188.407 58.6459C188.077 59.0166 187.889 59.4931 187.889 60.0755V60.3667C187.889 62.2198 188.454 63.7552 189.608 64.9729C190.762 66.1907 192.222 66.826 193.918 66.826C195.59 66.826 197.073 66.1907 198.204 64.9465C199.358 63.7022 199.923 62.1403 199.923 60.3402H199.876V47.4744C199.876 46.892 199.711 46.3891 199.358 46.0449C199.028 45.6743 198.557 45.489 198.015 45.489C197.497 45.489 197.026 45.6743 196.673 46.0449C196.32 46.442 196.131 46.892 196.131 47.4744V51.5248C196.131 51.8689 196.084 52.1866 195.967 52.4778C195.872 52.769 195.707 53.0072 195.496 53.2455C195.072 53.6955 194.506 53.9338 193.894 53.9338C193.588 53.9338 193.258 53.8808 192.999 53.7485C192.74 53.6161 192.505 53.4573 192.269 53.219C191.845 52.769 191.61 52.1601 191.61 51.4983V47.4744C191.61 46.892 191.445 46.3891 191.092 46.0449C190.738 45.6743 190.267 45.489 189.726 45.489C189.184 45.489 188.713 45.6743 188.383 46.0449C188.054 46.4155 187.865 46.892 187.865 47.4744V51.5248C187.865 53.3779 188.43 54.9133 189.584 56.131C190.738 57.3488 192.198 57.9841 193.894 57.9841C194.577 57.9841 195.236 57.8518 195.872 57.6135L196.131 57.5076V60.3667C196.131 60.7108 196.084 61.0285 195.967 61.3197C195.872 61.6109 195.707 61.8491 195.496 62.0874C195.095 62.5374 194.554 62.8022 193.941 62.8022C193.635 62.8022 193.305 62.7492 193.046 62.6168C192.787 62.4845 192.552 62.3256 192.316 62.0874C191.892 61.6374 191.657 61.0285 191.657 60.3667V60.0755C191.657 59.4931 191.492 58.9901 191.139 58.6459C190.762 58.3018 190.314 58.09 189.749 58.09Z" fill="white"/>
<path d="M216.952 48.0039C214.973 45.9125 212.524 44.8271 209.675 44.8271H205.506C204.941 44.8271 204.446 45.0654 204.046 45.489C203.646 45.9125 203.41 46.442 203.41 47.0509V64.4434C203.41 65.0788 203.599 65.6347 203.975 66.0318C204.352 66.4289 204.87 66.6407 205.459 66.6407C206.048 66.6407 206.566 66.4289 206.966 66.0318C207.32 65.6612 207.508 65.1847 207.555 64.6287C207.579 65.2111 207.767 65.7141 208.12 66.0847C208.497 66.4818 209.015 66.6936 209.604 66.6936C212.477 66.6936 214.926 65.6347 216.905 63.5434C218.883 61.4255 219.848 58.8312 219.848 55.7604C219.943 52.716 218.93 50.1217 216.952 48.0039ZM207.602 64.2581V49.3275H209.675C211.394 49.3275 212.854 49.9364 213.984 51.1806C215.138 52.4248 215.703 53.9602 215.703 55.7869C215.703 57.6135 215.138 59.1489 213.961 60.3666C212.783 61.6109 211.347 62.2462 209.675 62.2462C209.086 62.2462 208.544 62.458 208.167 62.8815C207.838 63.2786 207.649 63.7287 207.602 64.2581Z" fill="white"/>
<path d="M209.699 66.9581C209.016 66.9581 208.474 66.7199 208.074 66.2698C207.885 66.058 207.744 65.8463 207.626 65.5815C207.532 65.8198 207.367 66.0316 207.202 66.2169C206.779 66.6669 206.213 66.8787 205.554 66.8787C204.871 66.8787 204.329 66.6404 203.929 66.1904C203.505 65.7404 203.27 65.1315 203.27 64.4432V47.0771C203.27 46.4418 203.505 45.8594 203.952 45.3564C204.4 44.9063 204.942 44.6416 205.554 44.6416H209.722C211.182 44.6416 212.525 44.9328 213.773 45.4623C214.998 45.9917 216.152 46.8124 217.164 47.8713C218.177 48.9567 218.907 50.1479 219.425 51.4716C219.92 52.7687 220.202 54.2512 220.202 55.8131C220.202 57.375 219.943 58.8045 219.425 60.1546C218.931 61.4518 218.177 62.6695 217.164 63.7549V63.7814H217.141C216.128 64.8403 214.998 65.6609 213.773 66.1904C212.525 66.6934 211.159 66.9581 209.699 66.9581ZM207.414 64.655H207.815C207.838 65.1844 208.003 65.6345 208.333 65.9522C208.663 66.3228 209.134 66.5081 209.675 66.5081C212.478 66.5081 214.903 65.4492 216.835 63.4108C218.766 61.3459 219.731 58.778 219.731 55.7866C219.731 52.7952 218.742 50.2273 216.835 48.1625C214.856 46.1505 212.454 45.0916 209.675 45.0916H205.507C205.012 45.0916 204.565 45.3034 204.188 45.674C203.811 46.0711 203.646 46.5476 203.646 47.0771V64.4697C203.646 65.0521 203.811 65.5551 204.164 65.8992C204.494 66.2698 204.965 66.4551 205.507 66.4551C206.048 66.4551 206.519 66.2698 206.873 65.8992C207.202 65.5815 207.367 65.158 207.414 64.655ZM207.815 64.2844L207.414 64.2579V49.1155H209.699C210.594 49.1155 211.394 49.2743 212.148 49.592C212.902 49.9097 213.561 50.3862 214.173 51.0215C214.762 51.6569 215.233 52.3716 215.516 53.1658C215.798 53.96 215.963 54.8336 215.963 55.7866C215.963 56.7132 215.822 57.5868 215.516 58.3809C215.21 59.1751 214.739 59.8899 214.173 60.5252C213.585 61.1606 212.902 61.6636 212.148 61.9548C211.394 62.2724 210.594 62.4313 209.722 62.4313C209.157 62.4313 208.71 62.6166 208.38 63.0137C208.027 63.3843 207.862 63.8079 207.815 64.2844ZM207.815 49.5655V63.0401C207.885 62.9343 207.956 62.8548 208.027 62.7489C208.427 62.2724 208.992 62.0342 209.675 62.0342C211.3 62.0342 212.713 61.4253 213.82 60.234C214.951 59.0428 215.492 57.5338 215.492 55.8131C215.492 54.013 214.951 52.5834 213.82 51.3657C212.713 50.1744 211.3 49.5655 209.652 49.5655H207.815Z" fill="white"/>
<path fill-rule="evenodd" clip-rule="evenodd" d="M236.711 53.326C236.781 53.3524 236.828 53.4583 236.781 53.5377C236.711 53.6701 236.663 53.776 236.616 53.9083C236.522 54.1201 236.428 54.3319 236.31 54.5172C236.24 54.6761 236.24 54.782 236.334 54.9143C236.451 55.0732 236.546 55.232 236.687 55.3908C236.781 55.5232 236.875 55.6555 236.97 55.7879C237.017 55.8673 236.993 55.9732 236.946 56.0262C236.852 56.0791 236.781 56.1321 236.711 56.2115C236.522 56.3438 236.31 56.5027 236.122 56.635C235.98 56.7409 235.933 56.8468 235.957 57.0321C236.004 57.2969 236.028 57.5351 236.075 57.7734C236.075 57.8793 236.098 57.9852 236.122 58.091C236.145 58.1705 236.075 58.2764 235.98 58.2764H235.91C235.58 58.3028 235.25 58.3293 234.921 58.3293C234.779 58.3293 234.732 58.4087 234.685 58.5411C234.567 58.9117 234.45 59.2294 234.308 59.6C234.285 59.6794 234.191 59.7324 234.12 59.6794L233.979 59.6C233.908 59.5735 233.861 59.547 233.79 59.4941C233.602 59.3882 233.413 59.2823 233.225 59.1764C233.06 59.0441 232.942 59.097 232.801 59.2294C232.754 59.2558 232.73 59.3088 232.683 59.3353C232.471 59.5206 232.259 59.7059 232.024 59.8647C231.953 59.9177 231.859 59.8912 231.836 59.8382C231.788 59.7323 231.718 59.6529 231.671 59.5735C231.529 59.3353 231.388 59.1235 231.27 58.8852C231.2 58.7529 231.129 58.7264 231.011 58.7529C230.682 58.8323 230.328 58.8852 229.952 58.9382C229.881 58.9646 229.787 58.8852 229.787 58.7793C229.763 58.594 229.763 58.4087 229.763 58.2234C229.763 58.0381 229.74 57.8528 229.74 57.6675C229.74 57.4822 229.716 57.4027 229.551 57.3498C229.245 57.2174 228.915 57.0851 228.586 56.9527C228.515 56.9262 228.468 56.8204 228.515 56.7409C228.586 56.6086 228.656 56.4762 228.703 56.3438C228.798 56.1585 228.892 55.9467 228.986 55.7614C229.057 55.6291 229.057 55.5232 228.962 55.3908C228.75 55.0996 228.539 54.8349 228.303 54.5172C228.256 54.4378 228.279 54.3319 228.327 54.279C228.609 54.0672 228.868 53.8819 229.151 53.723C229.316 53.6172 229.339 53.5113 229.316 53.326C229.269 53.0612 229.245 52.823 229.198 52.5582C229.198 52.4523 229.174 52.3465 229.151 52.2406C229.127 52.1611 229.198 52.0553 229.292 52.0553C229.457 52.0553 229.622 52.0288 229.787 52.0288C229.952 52.0288 230.14 52.0288 230.281 52.0023C230.446 52.0023 230.517 51.9229 230.564 51.7905C230.682 51.4464 230.799 51.1287 230.941 50.7581C230.964 50.6787 231.058 50.6257 231.129 50.6787C231.176 50.7051 231.223 50.7316 231.27 50.7581C231.412 50.8375 231.553 50.8905 231.647 50.9963C232.024 51.314 232.377 51.314 232.707 50.8905C232.825 50.7581 232.942 50.6522 233.084 50.5728C233.131 50.5463 233.154 50.5198 233.202 50.4934C233.272 50.4404 233.366 50.4669 233.39 50.5463C233.578 50.864 233.767 51.1552 233.932 51.4729C234.002 51.6052 234.096 51.6846 234.238 51.6582C234.473 51.6052 234.685 51.5787 234.921 51.5523C235.038 51.5258 235.156 51.5258 235.25 51.4993C235.321 51.4729 235.415 51.5523 235.415 51.6582C235.439 51.8435 235.439 52.0288 235.439 52.2141C235.439 52.3994 235.462 52.5847 235.462 52.77C235.462 52.9553 235.533 53.0347 235.674 53.0877C236.028 53.0612 236.31 53.1936 236.569 53.2995C236.663 53.2995 236.687 53.2995 236.711 53.326ZM233.578 53.723C233.696 53.5377 233.484 53.3524 233.366 53.5113C233.343 53.5377 233.343 53.5377 233.343 53.5642C232.942 54.1201 232.542 54.7025 232.118 55.2585C231.93 55.4967 231.741 55.7614 231.577 55.9997C231.529 56.0791 231.482 56.1321 231.412 56.2115C231.294 56.3703 231.482 56.5821 231.624 56.4233L231.647 56.3968C231.647 56.3968 231.671 56.3703 231.671 56.3438C232.024 55.8409 232.377 55.3379 232.754 54.8614C233.013 54.5172 233.296 54.1466 233.555 53.776L233.578 53.723ZM234.026 56.0791C233.908 56.7674 233.39 57.0851 232.919 56.7674C232.73 56.635 232.613 56.4233 232.589 56.185C232.566 55.8144 232.613 55.4702 232.872 55.2055C233.107 54.9937 233.366 54.9408 233.673 55.0996C233.955 55.2585 234.049 55.4967 234.049 55.8409C234.049 55.9732 234.049 56.0262 234.026 56.0791ZM233.696 56.0526C233.696 55.9997 233.696 55.9732 233.696 55.9203C233.696 55.8409 233.696 55.7614 233.696 55.6555C233.673 55.4702 233.578 55.3908 233.437 55.3379C233.272 55.3114 233.154 55.3643 233.107 55.5232C233.037 55.7879 232.99 56.0262 232.99 56.2909C232.99 56.3968 233.131 56.5556 233.225 56.5556C233.343 56.5821 233.484 56.4762 233.555 56.3968C233.625 56.3438 233.649 56.2644 233.673 56.1585C233.673 56.1585 233.673 56.1056 233.696 56.0526ZM231.176 54.9408C231.647 55.2585 232.165 54.9408 232.283 54.2525C232.307 54.1996 232.307 54.0937 232.307 54.0142C232.307 53.6701 232.212 53.4318 231.93 53.273C231.647 53.1142 231.388 53.1671 231.129 53.3789C230.87 53.6436 230.823 53.9878 230.846 54.3584C230.87 54.5966 230.988 54.8084 231.176 54.9408ZM231.953 54.0672C231.953 54.1201 231.953 54.1466 231.953 54.1995C231.93 54.2525 231.93 54.279 231.906 54.3319C231.883 54.4113 231.859 54.5172 231.788 54.5702C231.718 54.6496 231.577 54.7555 231.459 54.729C231.365 54.729 231.223 54.5702 231.223 54.4643C231.223 54.1995 231.27 53.9613 231.341 53.6966C231.388 53.5377 231.506 53.4848 231.671 53.5113C231.812 53.5642 231.906 53.6436 231.93 53.8289C231.953 53.8819 231.953 53.9878 231.953 54.0672Z" fill="white"/>
<path d="M226.794 64.8664C227.383 65.3429 228.419 65.6077 229.196 64.9194C231.104 65.6871 233.058 65.793 235.037 65.237C236.991 64.6811 238.593 63.5428 239.864 61.9015C240.383 61.2132 240.854 60.472 241.183 59.6513C241.749 58.3277 242.008 56.8981 242.031 55.4686C242.031 54.595 241.913 53.7479 241.725 52.9008C241.419 51.6565 240.901 50.5182 240.218 49.4858C239.393 48.2945 238.381 47.3679 237.156 46.6267C235.673 45.7531 234.095 45.356 232.423 45.409C231.433 45.4354 230.491 45.6207 229.597 45.9384C227.477 46.7061 225.781 48.1092 224.604 50.1476C223.285 52.4242 222.885 54.8862 223.332 57.5335C223.568 58.7512 223.992 59.8896 224.604 60.9485C224.557 61.0279 224.533 61.1073 224.51 61.1602C224.486 61.2397 224.463 61.3191 224.463 61.3985C224.298 62.2192 224.58 62.9074 225.098 63.384C225.593 63.8605 226.205 64.3634 226.794 64.8664ZM225.781 56.1834C225.405 52.186 228.136 48.6122 231.834 48.1886C235.625 47.765 239.017 50.7035 239.37 54.7538C239.7 58.7512 237.015 62.325 233.223 62.6957C229.432 63.1457 226.135 60.1808 225.781 56.1834Z" fill="white"/>
<path d="M232.518 66.1377C231.411 66.1377 230.328 65.9259 229.268 65.5553C228.35 66.1641 227.196 65.9524 226.466 65.317C225.924 64.867 225.288 64.311 224.7 63.7286C224.017 63.0404 223.734 62.1403 223.922 61.2137C223.946 61.1078 223.97 61.0284 223.993 60.949C223.428 59.9166 223.004 58.8047 222.792 57.6134V57.587C222.556 56.2104 222.533 54.8338 222.745 53.5631C222.957 52.3189 223.404 51.1011 224.04 49.9628L224.111 49.8305C225.359 47.7126 227.125 46.2302 229.386 45.4095C230.375 45.0389 231.388 44.8801 232.353 44.8536C233.248 44.8271 234.096 44.933 234.92 45.1713C235.768 45.383 236.569 45.7272 237.346 46.1772C238.006 46.5743 238.571 46.9979 239.112 47.4744C239.654 47.9774 240.149 48.5598 240.573 49.1686C240.949 49.6981 241.279 50.307 241.538 50.8894C241.797 51.4718 242.009 52.1071 242.198 52.7954C242.409 53.722 242.527 54.622 242.527 55.4956V55.5221C242.504 57.084 242.221 58.5665 241.632 59.9166C241.256 60.8166 240.785 61.6108 240.243 62.2991C238.877 64.0463 237.181 65.2111 235.156 65.82C234.261 66.0053 233.39 66.1377 232.518 66.1377ZM229.08 64.2581L229.363 64.3905C231.129 65.1052 232.989 65.2111 234.873 64.6817H234.897C236.687 64.1787 238.241 63.1198 239.442 61.5579C239.913 60.949 240.361 60.2342 240.69 59.4401C241.185 58.2488 241.467 56.8987 241.491 55.4691C241.491 54.7014 241.397 53.8808 241.185 53.0601C240.902 51.8689 240.408 50.8364 239.748 49.8305C238.971 48.7186 238.029 47.845 236.852 47.1302C235.486 46.3361 233.978 45.939 232.377 45.939C231.482 45.9654 230.611 46.1243 229.716 46.4155C227.69 47.1567 226.113 48.4539 225.006 50.3599V50.3864C223.758 52.5042 223.381 54.8338 223.805 57.3487C224.017 58.5135 224.441 59.5724 225.006 60.5784L225.171 60.8961L225.006 61.2137C224.982 61.2402 224.982 61.2931 224.982 61.2931C224.959 61.3196 224.959 61.3726 224.959 61.4255V61.452C224.841 62.0079 225.006 62.5109 225.406 62.9345C225.971 63.4904 226.607 64.0463 227.125 64.4699C227.479 64.7875 228.279 65.0523 228.844 64.5228L229.08 64.2581ZM232.542 63.3051C231.788 63.3051 231.082 63.1727 230.352 62.9345C229.433 62.6168 228.633 62.1403 227.879 61.5049C227.125 60.8696 226.537 60.0754 226.113 59.2018C225.665 58.2753 225.359 57.2693 225.265 56.2369C225.171 55.178 225.265 54.1455 225.547 53.1395C225.83 52.1601 226.277 51.2865 226.866 50.4923C227.455 49.6981 228.185 49.0627 229.033 48.5598C229.904 48.0568 230.799 47.7391 231.788 47.6067C232.801 47.5009 233.79 47.5803 234.732 47.9244C235.651 48.2421 236.498 48.7186 237.252 49.3539C238.006 49.9893 238.594 50.7835 239.042 51.6835C239.513 52.6101 239.819 53.6425 239.913 54.675C240.007 55.7339 239.913 56.7663 239.607 57.7723C239.324 58.7518 238.877 59.6254 238.265 60.4196C237.676 61.2137 236.922 61.8491 236.098 62.3521C235.227 62.855 234.308 63.1462 233.295 63.2786C233.013 63.3051 232.777 63.3051 232.542 63.3051ZM226.277 56.131C226.584 59.5989 229.339 62.1932 232.542 62.1932C232.73 62.1932 232.942 62.1932 233.178 62.1668C236.687 61.7961 239.183 58.5665 238.853 54.8338C238.689 53.0072 237.888 51.3923 236.569 50.254C235.25 49.0892 233.602 48.5862 231.882 48.7715C228.444 49.1686 225.948 52.4777 226.277 56.131Z" fill="white"/>
<path d="M224.3 65.2903L225.289 66.1639C225.925 66.7198 225.995 67.6993 225.454 68.3347L223.688 70.5584C223.169 71.2202 222.251 71.2996 221.639 70.7437L220.649 69.8701C220.014 69.3142 219.943 68.3347 220.485 67.6993L222.251 65.4756C222.769 64.7873 223.688 64.7344 224.3 65.2903Z" fill="white"/>
<g clip-path="url(#clip0_38_1649)">
<path d="M150.607 129.802C150.249 129.585 149.801 129.585 149.443 129.802L143.959 133.126C143.109 133.641 142.058 132.879 142.284 131.911L143.738 125.68C143.833 125.275 143.696 124.852 143.382 124.579L138.555 120.375C137.807 119.724 138.209 118.494 139.197 118.41L145.559 117.87C145.973 117.834 146.334 117.573 146.497 117.19L148.993 111.323C149.381 110.412 150.672 110.412 151.059 111.323L153.556 117.191C153.719 117.573 154.079 117.834 154.494 117.87L160.855 118.41C161.843 118.494 162.245 119.724 161.498 120.375L156.67 124.579C156.357 124.852 156.22 125.275 156.314 125.68L157.768 131.911C157.994 132.879 156.943 133.642 156.093 133.127L150.607 129.802Z" fill="#FFC500"/>
</g>
<g clip-path="url(#clip1_38_1649)">
<path d="M179.593 129.802C179.236 129.585 178.787 129.585 178.43 129.802L172.945 133.126C172.095 133.641 171.045 132.879 171.27 131.911L172.724 125.68C172.819 125.275 172.682 124.852 172.368 124.579L167.541 120.375C166.793 119.724 167.195 118.494 168.183 118.41L174.545 117.87C174.959 117.834 175.32 117.573 175.483 117.19L177.98 111.323C178.367 110.412 179.658 110.412 180.045 111.323L182.542 117.191C182.705 117.573 183.066 117.834 183.48 117.87L189.842 118.41C190.83 118.494 191.232 119.724 190.484 120.375L185.657 124.579C185.343 124.852 185.206 125.275 185.301 125.68L186.755 131.911C186.981 132.879 185.93 133.642 185.08 133.127L179.593 129.802Z" fill="#FFC500"/>
</g>
<g clip-path="url(#clip2_38_1649)">
<path d="M208.58 129.802C208.222 129.585 207.774 129.585 207.416 129.802L201.932 133.126C201.082 133.641 200.031 132.879 200.257 131.911L201.711 125.68C201.805 125.275 201.668 124.852 201.355 124.579L196.528 120.375C195.78 119.724 196.182 118.494 197.17 118.41L203.531 117.87C203.946 117.834 204.307 117.573 204.469 117.19L206.966 111.323C207.353 110.412 208.644 110.412 209.032 111.323L211.528 117.191C211.691 117.573 212.052 117.834 212.466 117.87L218.828 118.41C219.816 118.494 220.218 119.724 219.47 120.375L214.643 124.579C214.329 124.852 214.192 125.275 214.287 125.68L215.741 131.911C215.967 132.879 214.916 133.642 214.066 133.127L208.58 129.802Z" fill="#FFC500"/>
</g>
<g clip-path="url(#clip3_38_1649)">
<path d="M237.568 129.802C237.21 129.585 236.762 129.585 236.404 129.802L230.92 133.126C230.07 133.641 229.019 132.879 229.245 131.911L230.699 125.68C230.793 125.275 230.657 124.852 230.343 124.579L225.516 120.375C224.768 119.724 225.17 118.494 226.158 118.41L232.52 117.87C232.934 117.834 233.295 117.573 233.458 117.19L235.954 111.323C236.342 110.412 237.633 110.412 238.02 111.323L240.517 117.191C240.679 117.573 241.04 117.834 241.455 117.87L247.816 118.41C248.804 118.494 249.206 119.724 248.458 120.375L243.631 124.579C243.318 124.852 243.181 125.275 243.275 125.68L244.729 131.911C244.955 132.879 243.904 133.642 243.054 133.127L237.568 129.802Z" fill="#FFC500"/>
</g>
<g clip-path="url(#clip4_38_1649)">
<path fill-rule="evenodd" clip-rule="evenodd" d="M260.174 130.995L264.518 128.362C265.412 127.82 266.533 127.82 267.427 128.362L271.773 130.995L270.622 126.063C270.386 125.051 270.728 123.991 271.512 123.309L275.34 119.975L270.298 119.547C269.263 119.459 268.361 118.806 267.954 117.85L265.973 113.196L263.993 117.85C263.586 118.806 262.684 119.459 261.648 119.547L256.607 119.975L260.435 123.309C261.219 123.991 261.561 125.051 261.325 126.063L260.174 130.995ZM265.391 129.802C265.748 129.585 266.197 129.585 266.554 129.802L272.041 133.127C272.891 133.642 273.941 132.879 273.716 131.911L272.262 125.68C272.167 125.275 272.304 124.852 272.618 124.579L277.445 120.375C278.193 119.724 277.791 118.494 276.803 118.41L270.441 117.87C270.027 117.834 269.666 117.573 269.503 117.191L267.006 111.323C266.619 110.412 265.328 110.412 264.941 111.323L262.444 117.19C262.281 117.573 261.92 117.834 261.506 117.87L255.144 118.41C254.156 118.494 253.754 119.724 254.502 120.375L259.329 124.579C259.643 124.852 259.78 125.275 259.685 125.68L258.231 131.911C258.006 132.879 259.056 133.641 259.906 133.126L265.391 129.802Z" fill="#FFC500"/>
<mask id="mask0_38_1649" style="mask-type:alpha" maskUnits="userSpaceOnUse" x="254" y="110" width="24" height="24">
<path d="M266.554 129.802C266.197 129.585 265.748 129.585 265.391 129.802L259.906 133.126C259.056 133.641 258.006 132.879 258.231 131.911L259.685 125.68C259.78 125.275 259.643 124.852 259.329 124.579L254.502 120.375C253.754 119.724 254.156 118.494 255.144 118.41L261.506 117.87C261.92 117.834 262.281 117.573 262.444 117.19L264.941 111.323C265.328 110.412 266.619 110.412 267.006 111.323L269.503 117.191C269.666 117.573 270.027 117.834 270.441 117.87L276.803 118.41C277.791 118.494 278.193 119.724 277.445 120.375L272.618 124.579C272.304 124.852 272.167 125.275 272.262 125.68L273.716 131.911C273.941 132.879 272.891 133.642 272.041 133.127L266.554 129.802Z" fill="#FFC500"/>
</mask>
<g mask="url(#mask0_38_1649)">
<rect x="254.115" y="110.64" width="11.8582" height="22.6502" fill="#FFC500"/>
</g>
</g>
<path d="M184.95 165.195V163.263L190.642 154.269H192.254V157.02H191.271L187.439 163.093V163.197H195.385V165.195H184.95ZM191.35 167.685V164.606L191.376 163.741V154.269H193.668V167.685H191.35ZM198.586 167.829C198.189 167.829 197.848 167.689 197.564 167.409C197.281 167.13 197.141 166.789 197.145 166.388C197.141 165.995 197.281 165.658 197.564 165.379C197.848 165.099 198.189 164.96 198.586 164.96C198.971 164.96 199.305 165.099 199.588 165.379C199.877 165.658 200.023 165.995 200.027 166.388C200.023 166.654 199.953 166.896 199.818 167.115C199.687 167.333 199.512 167.508 199.294 167.639C199.08 167.765 198.844 167.829 198.586 167.829ZM206.714 167.868C205.74 167.868 204.875 167.704 204.12 167.377C203.369 167.049 202.779 166.602 202.351 166.034C201.928 165.462 201.718 164.813 201.722 164.088C201.718 163.525 201.84 163.008 202.089 162.536C202.338 162.064 202.674 161.671 203.098 161.357C203.526 161.038 204.002 160.835 204.526 160.748V160.656C203.836 160.503 203.277 160.152 202.849 159.601C202.425 159.047 202.216 158.407 202.22 157.682C202.216 156.992 202.408 156.376 202.797 155.835C203.185 155.293 203.718 154.867 204.395 154.557C205.072 154.243 205.845 154.086 206.714 154.086C207.574 154.086 208.34 154.243 209.013 154.557C209.69 154.867 210.223 155.293 210.611 155.835C211.004 156.376 211.201 156.992 211.201 157.682C211.201 158.407 210.985 159.047 210.552 159.601C210.124 160.152 209.572 160.503 208.895 160.656V160.748C209.419 160.835 209.891 161.038 210.31 161.357C210.734 161.671 211.07 162.064 211.319 162.536C211.572 163.008 211.699 163.525 211.699 164.088C211.699 164.813 211.485 165.462 211.057 166.034C210.629 166.602 210.039 167.049 209.288 167.377C208.541 167.704 207.683 167.868 206.714 167.868ZM206.714 165.995C207.216 165.995 207.653 165.909 208.024 165.739C208.395 165.564 208.683 165.32 208.889 165.005C209.094 164.691 209.199 164.329 209.203 163.918C209.199 163.49 209.087 163.112 208.869 162.785C208.655 162.453 208.36 162.193 207.985 162.005C207.613 161.818 207.19 161.724 206.714 161.724C206.233 161.724 205.805 161.818 205.43 162.005C205.054 162.193 204.757 162.453 204.539 162.785C204.325 163.112 204.22 163.49 204.225 163.918C204.22 164.329 204.321 164.691 204.526 165.005C204.731 165.315 205.019 165.558 205.391 165.733C205.766 165.907 206.207 165.995 206.714 165.995ZM206.714 159.883C207.124 159.883 207.487 159.8 207.801 159.634C208.12 159.468 208.371 159.237 208.554 158.94C208.738 158.643 208.832 158.3 208.836 157.911C208.832 157.527 208.74 157.191 208.561 156.902C208.382 156.61 208.133 156.385 207.814 156.228C207.495 156.066 207.129 155.985 206.714 155.985C206.29 155.985 205.917 156.066 205.594 156.228C205.275 156.385 205.026 156.61 204.847 156.902C204.672 157.191 204.587 157.527 204.591 157.911C204.587 158.3 204.674 158.643 204.853 158.94C205.037 159.232 205.288 159.464 205.607 159.634C205.93 159.8 206.299 159.883 206.714 159.883ZM219.355 153.64L215.031 169.702H212.955L217.278 153.64H219.355ZM225.505 167.868C224.632 167.868 223.85 167.704 223.16 167.377C222.47 167.045 221.922 166.591 221.516 166.014C221.114 165.438 220.9 164.778 220.874 164.036H223.232C223.276 164.586 223.514 165.036 223.946 165.385C224.379 165.73 224.898 165.903 225.505 165.903C225.981 165.903 226.405 165.794 226.776 165.575C227.147 165.357 227.44 165.053 227.654 164.665C227.868 164.276 227.973 163.833 227.968 163.335C227.973 162.828 227.866 162.379 227.647 161.986C227.429 161.593 227.13 161.285 226.75 161.062C226.37 160.835 225.933 160.721 225.44 160.721C225.038 160.717 224.643 160.791 224.254 160.944C223.866 161.097 223.558 161.298 223.331 161.547L221.136 161.187L221.837 154.269H229.619V156.3H223.848L223.462 159.857H223.54C223.789 159.564 224.141 159.322 224.595 159.13C225.049 158.933 225.547 158.835 226.088 158.835C226.901 158.835 227.626 159.027 228.263 159.411C228.901 159.791 229.403 160.315 229.77 160.983C230.137 161.652 230.32 162.416 230.32 163.276C230.32 164.163 230.115 164.953 229.704 165.647C229.298 166.337 228.733 166.881 228.008 167.278C227.287 167.671 226.453 167.868 225.505 167.868Z" fill="#B8C2CE"/>
<defs>
<clipPath id="clip0_38_1649">
<rect width="23.7164" height="22.7283" fill="white" transform="translate(138.168 110.64)"/>
</clipPath>
<clipPath id="clip1_38_1649">
<rect width="23.7164" height="22.7283" fill="white" transform="translate(167.154 110.64)"/>
</clipPath>
<clipPath id="clip2_38_1649">
<rect width="23.7164" height="22.7283" fill="white" transform="translate(196.141 110.64)"/>
</clipPath>
<clipPath id="clip3_38_1649">
<rect width="23.7164" height="22.7283" fill="white" transform="translate(225.129 110.64)"/>
</clipPath>
<clipPath id="clip4_38_1649">
<rect width="23.7164" height="22.7283" fill="white" transform="translate(254.115 110.64)"/>
</clipPath>
</defs>
</svg>
