<svg width="416" height="188" viewBox="0 0 416 188" fill="none" xmlns="http://www.w3.org/2000/svg">
<path d="M208 13.3164C166.496 13.3164 166.496 13.3164 166.496 54.8202C166.496 96.324 166.496 96.324 208 96.324C249.504 96.324 249.504 96.324 249.504 54.8202C249.504 13.3164 249.504 13.3164 208 13.3164Z" fill="#FE3838"/>
<path d="M182.83 63.2718C180.06 63.2718 177.96 62.5573 176.531 61.1283C175.102 59.6993 174.387 57.6214 174.387 54.8945C174.387 52.1677 175.138 50.0898 176.64 48.6608C178.142 47.2318 180.344 46.5172 183.246 46.5172C184.033 46.5172 184.843 46.5683 185.674 46.6703C186.52 46.7724 187.271 46.911 187.927 47.0859C188.043 48.3108 188.182 49.4409 188.342 50.4762L188.211 50.8262C186.782 50.4179 185.353 50.2138 183.924 50.2138C182.305 50.2138 181.11 50.6148 180.337 51.4168C179.564 52.2042 179.178 53.4145 179.178 55.0476C179.178 56.6517 179.535 57.8182 180.249 58.5473C180.964 59.2764 182.087 59.6409 183.618 59.6409C184.376 59.6409 185.069 59.568 185.696 59.4222C185.725 58.7515 185.739 58.2702 185.739 57.9786C185.739 57.6724 185.725 57.1985 185.696 56.5569H182.787L182.677 56.2944C182.823 55.1862 182.918 54.355 182.962 53.8009H188.911L189.086 54.0852C189.057 55.8351 189.042 57.162 189.042 58.0661C189.042 58.941 189.057 60.268 189.086 62.047L188.977 62.3313C188.16 62.6229 187.198 62.849 186.089 63.0094C184.981 63.1843 183.895 63.2718 182.83 63.2718ZM191.103 62.6594C191.205 61.8137 191.256 59.9836 191.256 57.1693C191.256 53.8738 191.205 51.8761 191.103 51.1762L191.19 50.8918H195.434L195.565 51.1543C195.506 51.6063 195.492 52.1531 195.521 52.7947L195.63 52.8166C195.98 52.1459 196.432 51.599 196.986 51.1762C197.541 50.7533 198.211 50.5418 198.999 50.5418C199.378 50.5418 199.684 50.571 199.917 50.6293C199.961 51.5042 200.056 52.8166 200.202 54.5664L200.071 54.807C199.706 54.7196 199.247 54.6758 198.693 54.6758C197.803 54.6758 197.074 54.9966 196.505 55.6382C195.937 56.2652 195.652 57.1329 195.652 58.2411C195.652 60.1659 195.703 61.6387 195.805 62.6594L195.718 62.9219H191.19L191.103 62.6594ZM213.331 57.1474L205.413 58.263C205.588 58.9191 205.916 59.4003 206.397 59.7066C206.893 59.9982 207.586 60.144 208.475 60.144C209.861 60.144 211.18 59.9107 212.434 59.4441L212.544 59.7284C212.383 60.6908 212.252 61.6532 212.15 62.6157C211.45 62.8198 210.685 62.9802 209.853 63.0969C209.037 63.2135 208.257 63.2718 207.513 63.2718C205.253 63.2718 203.547 62.7396 202.395 61.6751C201.257 60.6106 200.689 59.0431 200.689 56.9725C200.689 54.931 201.265 53.3489 202.417 52.2261C203.569 51.1032 205.173 50.5418 207.229 50.5418C211.341 50.5418 213.411 52.6416 213.441 56.8412L213.331 57.1474ZM209.547 55.7257C209.533 55.0258 209.358 54.479 209.022 54.0852C208.701 53.6915 208.22 53.4947 207.579 53.4947C206.879 53.4947 206.325 53.7499 205.916 54.2602C205.508 54.756 205.282 55.4705 205.238 56.4038L209.547 55.7257ZM227.05 57.1474L219.132 58.263C219.307 58.9191 219.635 59.4003 220.117 59.7066C220.612 59.9982 221.305 60.144 222.195 60.144C223.58 60.144 224.9 59.9107 226.154 59.4441L226.263 59.7284C226.103 60.6908 225.971 61.6532 225.869 62.6157C225.169 62.8198 224.404 62.9802 223.573 63.0969C222.756 63.2135 221.976 63.2718 221.232 63.2718C218.972 63.2718 217.266 62.7396 216.114 61.6751C214.977 60.6106 214.408 59.0431 214.408 56.9725C214.408 54.931 214.984 53.3489 216.136 52.2261C217.288 51.1032 218.892 50.5418 220.948 50.5418C225.06 50.5418 227.131 52.6416 227.16 56.8412L227.05 57.1474ZM223.266 55.7257C223.252 55.0258 223.077 54.479 222.741 54.0852C222.421 53.6915 221.939 53.4947 221.298 53.4947C220.598 53.4947 220.044 53.7499 219.635 54.2602C219.227 54.756 219.001 55.4705 218.957 56.4038L223.266 55.7257ZM234.317 63.2718C232.626 63.2718 231.401 62.9073 230.642 62.1782C229.884 61.4491 229.505 60.2388 229.505 58.5473V53.9759H227.646C227.66 53.6259 227.668 53.1083 227.668 52.4229C227.668 51.7376 227.66 51.2272 227.646 50.8918H229.505C229.491 50.2065 229.454 49.6159 229.396 49.1201L229.461 48.792L233.77 47.8515L233.923 48.1796V50.8918H237.598L237.664 51.1543L237.576 51.8542C237.46 52.7729 237.387 53.4801 237.357 53.9759H233.923V57.6943C233.923 58.4379 234.055 58.9556 234.317 59.2472C234.58 59.5243 235.017 59.6628 235.629 59.6628C235.95 59.6628 236.264 59.6337 236.57 59.5753C236.891 59.517 237.292 59.4222 237.773 59.291L237.882 59.5753C237.737 60.4794 237.598 61.5366 237.467 62.7469C236.461 63.0969 235.411 63.2718 234.317 63.2718Z" fill="white"/>
<path d="M243.36 61.6921C243.36 62.8725 242.403 63.8295 241.222 63.8295C240.042 63.8295 239.085 62.8725 239.085 61.6921C239.085 60.5116 240.042 59.5547 241.222 59.5547C242.403 59.5547 243.36 60.5116 243.36 61.6921Z" fill="white"/>
<g clip-path="url(#clip0_38_1686)">
<path d="M150.607 129.802C150.249 129.585 149.801 129.585 149.443 129.802L143.959 133.126C143.109 133.641 142.058 132.879 142.284 131.911L143.738 125.68C143.833 125.275 143.696 124.852 143.382 124.579L138.555 120.375C137.807 119.724 138.209 118.494 139.197 118.41L145.559 117.87C145.973 117.834 146.334 117.573 146.497 117.19L148.993 111.323C149.381 110.412 150.672 110.412 151.059 111.323L153.556 117.191C153.719 117.573 154.079 117.834 154.494 117.87L160.855 118.41C161.843 118.494 162.245 119.724 161.498 120.375L156.67 124.579C156.357 124.852 156.22 125.275 156.314 125.68L157.768 131.911C157.994 132.879 156.943 133.642 156.093 133.127L150.607 129.802Z" fill="#FFC500"/>
</g>
<g clip-path="url(#clip1_38_1686)">
<path d="M179.593 129.802C179.236 129.585 178.787 129.585 178.43 129.802L172.945 133.126C172.095 133.641 171.045 132.879 171.27 131.911L172.724 125.68C172.819 125.275 172.682 124.852 172.368 124.579L167.541 120.375C166.793 119.724 167.195 118.494 168.183 118.41L174.545 117.87C174.959 117.834 175.32 117.573 175.483 117.19L177.98 111.323C178.367 110.412 179.658 110.412 180.045 111.323L182.542 117.191C182.705 117.573 183.066 117.834 183.48 117.87L189.842 118.41C190.83 118.494 191.232 119.724 190.484 120.375L185.657 124.579C185.343 124.852 185.206 125.275 185.301 125.68L186.755 131.911C186.981 132.879 185.93 133.642 185.08 133.127L179.593 129.802Z" fill="#FFC500"/>
</g>
<g clip-path="url(#clip2_38_1686)">
<path d="M208.58 129.802C208.223 129.585 207.775 129.585 207.417 129.802L201.933 133.126C201.083 133.641 200.032 132.879 200.258 131.911L201.712 125.68C201.806 125.275 201.669 124.852 201.356 124.579L196.528 120.375C195.781 119.724 196.183 118.494 197.171 118.41L203.532 117.87C203.947 117.834 204.308 117.573 204.47 117.19L206.967 111.323C207.354 110.412 208.645 110.412 209.033 111.323L211.529 117.191C211.692 117.573 212.053 117.834 212.467 117.87L218.829 118.41C219.817 118.494 220.219 119.724 219.471 120.375L214.644 124.579C214.33 124.852 214.193 125.275 214.288 125.68L215.742 131.911C215.968 132.879 214.917 133.642 214.067 133.127L208.58 129.802Z" fill="#FFC500"/>
</g>
<g clip-path="url(#clip3_38_1686)">
<path d="M237.567 129.802C237.209 129.585 236.761 129.585 236.403 129.802L230.919 133.126C230.069 133.641 229.018 132.879 229.244 131.911L230.698 125.68C230.793 125.275 230.656 124.852 230.342 124.579L225.515 120.375C224.767 119.724 225.169 118.494 226.157 118.41L232.519 117.87C232.933 117.834 233.294 117.573 233.457 117.19L235.953 111.323C236.341 110.412 237.632 110.412 238.019 111.323L240.516 117.191C240.678 117.573 241.039 117.834 241.454 117.87L247.815 118.41C248.803 118.494 249.205 119.724 248.457 120.375L243.63 124.579C243.317 124.852 243.18 125.275 243.274 125.68L244.728 131.911C244.954 132.879 243.903 133.642 243.053 133.127L237.567 129.802Z" fill="#FFC500"/>
</g>
<g clip-path="url(#clip4_38_1686)">
<path d="M266.554 129.802C266.197 129.585 265.748 129.585 265.391 129.802L259.906 133.126C259.056 133.641 258.006 132.879 258.231 131.911L259.685 125.68C259.78 125.275 259.643 124.852 259.329 124.579L254.502 120.375C253.754 119.724 254.156 118.494 255.144 118.41L261.506 117.87C261.92 117.834 262.281 117.573 262.444 117.19L264.941 111.323C265.328 110.412 266.619 110.412 267.006 111.323L269.503 117.191C269.666 117.573 270.027 117.834 270.441 117.87L276.803 118.41C277.791 118.494 278.193 119.724 277.445 120.375L272.618 124.579C272.304 124.852 272.167 125.275 272.262 125.68L273.716 131.911C273.941 132.879 272.891 133.642 272.041 133.127L266.554 129.802Z" fill="#FFC500"/>
</g>
<path d="M198.356 167.868C197.483 167.868 196.701 167.704 196.011 167.377C195.321 167.045 194.773 166.591 194.367 166.014C193.965 165.438 193.751 164.778 193.725 164.036H196.083C196.127 164.586 196.365 165.036 196.797 165.385C197.229 165.73 197.749 165.903 198.356 165.903C198.832 165.903 199.256 165.794 199.627 165.575C199.998 165.357 200.291 165.053 200.505 164.665C200.719 164.276 200.823 163.833 200.819 163.335C200.823 162.828 200.716 162.379 200.498 161.986C200.28 161.593 199.981 161.285 199.601 161.062C199.221 160.835 198.784 160.721 198.291 160.721C197.889 160.717 197.494 160.791 197.105 160.944C196.716 161.097 196.408 161.298 196.181 161.547L193.987 161.187L194.688 154.269H202.47V156.3H196.699L196.312 159.857H196.391C196.64 159.564 196.991 159.322 197.446 159.13C197.9 158.933 198.398 158.835 198.939 158.835C199.751 158.835 200.476 159.027 201.114 159.411C201.751 159.791 202.254 160.315 202.62 160.983C202.987 161.652 203.171 162.416 203.171 163.276C203.171 164.163 202.965 164.953 202.555 165.647C202.149 166.337 201.583 166.881 200.858 167.278C200.138 167.671 199.304 167.868 198.356 167.868ZM210.868 153.64L206.544 169.702H204.468L208.791 153.64H210.868ZM217.018 167.868C216.145 167.868 215.363 167.704 214.673 167.377C213.983 167.045 213.435 166.591 213.029 166.014C212.627 165.438 212.413 164.778 212.387 164.036H214.745C214.789 164.586 215.027 165.036 215.459 165.385C215.892 165.73 216.411 165.903 217.018 165.903C217.494 165.903 217.918 165.794 218.289 165.575C218.66 165.357 218.953 165.053 219.167 164.665C219.381 164.276 219.486 163.833 219.481 163.335C219.486 162.828 219.379 162.379 219.16 161.986C218.942 161.593 218.643 161.285 218.263 161.062C217.883 160.835 217.446 160.721 216.953 160.721C216.551 160.717 216.156 160.791 215.767 160.944C215.379 161.097 215.071 161.298 214.844 161.547L212.649 161.187L213.35 154.269H221.132V156.3H215.361L214.975 159.857H215.053C215.302 159.564 215.654 159.322 216.108 159.13C216.562 158.933 217.06 158.835 217.601 158.835C218.414 158.835 219.139 159.027 219.776 159.411C220.414 159.791 220.916 160.315 221.283 160.983C221.65 161.652 221.833 162.416 221.833 163.276C221.833 164.163 221.628 164.953 221.217 165.647C220.811 166.337 220.246 166.881 219.521 167.278C218.8 167.671 217.966 167.868 217.018 167.868Z" fill="#B8C2CE"/>
<defs>
<clipPath id="clip0_38_1686">
<rect width="23.7164" height="22.7283" fill="white" transform="translate(138.168 110.64)"/>
</clipPath>
<clipPath id="clip1_38_1686">
<rect width="23.7164" height="22.7283" fill="white" transform="translate(167.154 110.64)"/>
</clipPath>
<clipPath id="clip2_38_1686">
<rect width="23.7164" height="22.7283" fill="white" transform="translate(196.142 110.64)"/>
</clipPath>
<clipPath id="clip3_38_1686">
<rect width="23.7164" height="22.7283" fill="white" transform="translate(225.128 110.64)"/>
</clipPath>
<clipPath id="clip4_38_1686">
<rect width="23.7164" height="22.7283" fill="white" transform="translate(254.115 110.64)"/>
</clipPath>
</defs>
</svg>
