<svg width="42" height="42" viewBox="0 0 42 42" fill="none" xmlns="http://www.w3.org/2000/svg">
<rect x="2.71387" y="2.71387" width="36.5714" height="36.5714" rx="18.2857" fill="#F79009"/>
<rect x="2.71387" y="2.71387" width="36.5714" height="36.5714" rx="18.2857" stroke="#FEDF89" stroke-width="4.57143"/>
<mask id="mask0_1_7905" style="mask-type:alpha" maskUnits="userSpaceOnUse" x="11" y="11" width="20" height="20">
<rect x="11" y="11" width="20" height="20" fill="#D9D9D9"/>
</mask>
<g mask="url(#mask0_1_7905)">
<path d="M16.1042 21.1254C16.4653 20.2088 16.8993 19.3268 17.4063 18.4796C17.9132 17.6324 18.4861 16.8338 19.125 16.0838L18.0417 15.8546C17.7639 15.7991 17.4931 15.8129 17.2292 15.8963C16.9653 15.9796 16.7361 16.1185 16.5417 16.3129L13.9167 18.9379C13.7083 19.1463 13.6285 19.3963 13.6771 19.6879C13.7257 19.9796 13.8889 20.181 14.1667 20.2921L16.1042 21.1254ZM28.3542 13.0004C26.8819 12.931 25.4826 13.2157 24.1563 13.8546C22.8299 14.4935 21.6458 15.3338 20.6042 16.3754C19.9375 17.0421 19.3507 17.7643 18.8438 18.5421C18.3368 19.3199 17.8958 20.1393 17.5208 21.0004C17.4514 21.181 17.4167 21.365 17.4167 21.5525C17.4167 21.74 17.4861 21.9032 17.625 22.0421L20.2292 24.6463C20.3681 24.7852 20.5313 24.8546 20.7188 24.8546C20.9063 24.8546 21.0903 24.8199 21.2708 24.7504C22.1319 24.3754 22.9514 23.9345 23.7292 23.4275C24.5069 22.9206 25.2292 22.3338 25.8958 21.6671C26.9375 20.6254 27.7778 19.4414 28.4167 18.115C29.0556 16.7886 29.3403 15.3893 29.2708 13.9171C29.2708 13.806 29.2431 13.6949 29.1875 13.5838C29.1319 13.4727 29.0625 13.3754 28.9792 13.2921C28.8958 13.2088 28.7986 13.1393 28.6875 13.0838C28.5764 13.0282 28.4653 13.0004 28.3542 13.0004ZM23.0625 19.2088C22.7431 18.8893 22.5833 18.497 22.5833 18.0317C22.5833 17.5664 22.7431 17.1741 23.0625 16.8546C23.3819 16.5352 23.7743 16.3754 24.2396 16.3754C24.7049 16.3754 25.0972 16.5352 25.4167 16.8546C25.7361 17.1741 25.8958 17.5664 25.8958 18.0317C25.8958 18.497 25.7361 18.8893 25.4167 19.2088C25.0972 19.5282 24.7049 19.6879 24.2396 19.6879C23.7743 19.6879 23.3819 19.5282 23.0625 19.2088ZM21.1458 26.1671L21.9792 28.1046C22.0903 28.3824 22.2917 28.5491 22.5833 28.6046C22.875 28.6602 23.125 28.5838 23.3333 28.3754L25.9583 25.7504C26.1528 25.556 26.2917 25.3234 26.375 25.0525C26.4583 24.7817 26.4722 24.5074 26.4167 24.2296L26.2083 23.1463C25.4444 23.7852 24.6424 24.3581 23.8021 24.865C22.9618 25.372 22.0764 25.806 21.1458 26.1671ZM14.375 24.3754C14.8611 23.8893 15.4514 23.6428 16.1458 23.6359C16.8403 23.6289 17.4306 23.8685 17.9167 24.3546C18.4028 24.8407 18.6458 25.431 18.6458 26.1254C18.6458 26.8199 18.4028 27.4102 17.9167 27.8963C17.25 28.5629 16.4618 28.9588 15.5521 29.0838C14.6424 29.2088 13.7292 29.3338 12.8125 29.4588C12.9375 28.5421 13.066 27.6289 13.1979 26.7192C13.3299 25.8095 13.7222 25.0282 14.375 24.3754Z" fill="white"/>
</g>
</svg>
