<svg width="88" height="89" viewBox="0 0 88 89" fill="none" xmlns="http://www.w3.org/2000/svg">
<path d="M0.5 40.6855C0.5 31.2433 0.501062 24.212 1.22777 18.8067C1.95255 13.4159 3.39087 9.71751 6.21142 6.89696C9.03197 4.07642 12.7304 2.6381 18.1212 1.91332C23.5264 1.18661 30.5578 1.18555 40 1.18555H48C57.4422 1.18555 64.4736 1.18661 69.8788 1.91332C75.2696 2.6381 78.968 4.07642 81.7886 6.89696C84.6091 9.71751 86.0474 13.4159 86.7722 18.8067C87.4989 24.212 87.5 31.2433 87.5 40.6855V48.6855C87.5 58.1278 87.4989 65.1591 86.7722 70.5644C86.0474 75.9552 84.6091 79.6536 81.7886 82.4741C78.968 85.2947 75.2696 86.733 69.8788 87.4578C64.4736 88.1845 57.4422 88.1855 48 88.1855H40C30.5578 88.1855 23.5264 88.1845 18.1212 87.4578C12.7304 86.733 9.03197 85.2947 6.21142 82.4741C3.39087 79.6536 1.95255 75.9552 1.22777 70.5644C0.501062 65.1591 0.5 58.1278 0.5 48.6855V40.6855Z" stroke="#009379" stroke-opacity="0.2"/>
<path d="M58.1 51.8859L39.4 44.6859L58.1 37.4859C59.6 36.8859 60.4 35.1859 59.8 33.5859C59.2 32.0859 57.5 31.2859 55.9 31.8859L29.9 41.8859C28.8 42.2859 28 43.4859 28 44.6859C28 45.8859 28.8 47.0859 29.9 47.4859L55.9 57.4859C56.3 57.5859 56.6 57.6859 57 57.6859C58.2 57.6859 59.3 56.9859 59.8 55.7859C60.4 54.1859 59.6 52.4859 58.1 51.8859Z" fill="#1976D2"/>
<path d="M31 51.6855C34.866 51.6855 38 48.5515 38 44.6855C38 40.8196 34.866 37.6855 31 37.6855C27.134 37.6855 24 40.8196 24 44.6855C24 48.5515 27.134 51.6855 31 51.6855Z" fill="#1E88E5"/>
<path d="M57 41.6855C60.866 41.6855 64 38.5515 64 34.6855C64 30.8196 60.866 27.6855 57 27.6855C53.134 27.6855 50 30.8196 50 34.6855C50 38.5515 53.134 41.6855 57 41.6855Z" fill="#1E88E5"/>
<path d="M57 61.6855C60.866 61.6855 64 58.5515 64 54.6855C64 50.8196 60.866 47.6855 57 47.6855C53.134 47.6855 50 50.8196 50 54.6855C50 58.5515 53.134 61.6855 57 61.6855Z" fill="#1E88E5"/>
</svg>
